<svg xmlns="http://www.w3.org/2000/svg" xmlns:xlink="http://www.w3.org/1999/xlink" viewBox="0 0 76.01 25.71"><defs><style>.cls-1{stroke:#919191;stroke-miterlimit:10;fill:url(#linear-gradient);}.cls-2{fill:#5b4282;}.cls-3{fill:none;}.cls-4{isolation:isolate;font-size:8.4px;font-family:Poppins-Medium, Poppins;font-weight:500;}</style><linearGradient id="linear-gradient" x1="363.12" y1="-649.14" x2="431.51" y2="-649.14" gradientTransform="matrix(1, 0, 0, -1, -356, -636.28)" gradientUnits="userSpaceOnUse"><stop offset="0" stop-color="#fff"/><stop offset="1" stop-color="#d1d3d4"/></linearGradient></defs><title>bootstrap</title><g id="Layer_2" data-name="Layer 2"><g id="Layer_2-2" data-name="Layer 2"><polyline class="cls-1" points="7.12 3.37 7.12 0.5 75.51 0.5 75.51 25.21 7.12 25.21 7.12 22.74"/><path class="cls-2" d="M8.7,13.05A4,4,0,0,0,7.51,13H5.73v2.77h2c.3,0,.59,0,.69-.1a1,1,0,0,0,.59-.2,1,1,0,0,0,.4-.49,1.44,1.44,0,0,0,.2-.69,1.8,1.8,0,0,0-.2-.79A1.63,1.63,0,0,0,8.7,13.05Z"/><path class="cls-2" d="M8.4,11.87a.89.89,0,0,0,.59-.4,1.44,1.44,0,0,0,.2-.69,1.37,1.37,0,0,0-.2-.69,1.18,1.18,0,0,0-.49-.5,3.71,3.71,0,0,0-1.19-.1H5.73V12H7.41A2.71,2.71,0,0,0,8.4,11.87Z"/><path class="cls-2" d="M14.63,7.52a2,2,0,0,0-2-2H2a2,2,0,0,0-2,2V18.19a2,2,0,0,0,2,2H12.65a2,2,0,0,0,2-2Zm-4.15,7.8a5.55,5.55,0,0,1-.6.8,1.89,1.89,0,0,1-.89.39,4.91,4.91,0,0,1-1.28.2H4.55V8.6H7.61a3.25,3.25,0,0,1,1.48.3,1.77,1.77,0,0,1,.89.79,2,2,0,0,1,.3,1.09,1.92,1.92,0,0,1-.3,1,1.6,1.6,0,0,1-.89.69,1.73,1.73,0,0,1,1.09.69,1.71,1.71,0,0,1,.39,1.19A1.74,1.74,0,0,1,10.48,15.32Z"/><rect class="cls-3" x="20.85" y="8.41" width="47.54" height="8.7"/><text class="cls-4" transform="translate(23.95 15.54)">Bootstrap</text></g></g></svg>