<svg xmlns="http://www.w3.org/2000/svg" xmlns:xlink="http://www.w3.org/1999/xlink" viewBox="0 0 76.01 25.74"><defs><style>.cls-1{stroke:#919191;stroke-miterlimit:10;fill:url(#linear-gradient);}.cls-2{fill:#ee4323;}.cls-3{fill:none;}.cls-4{isolation:isolate;font-size:8.41px;font-family:Poppins-Medium, Poppins;font-weight:500;}</style><linearGradient id="linear-gradient" x1="362.83" y1="-790.09" x2="431.51" y2="-790.09" gradientTransform="matrix(1, 0, 0, -1, -356, -777.22)" gradientUnits="userSpaceOnUse"><stop offset="0" stop-color="#fff"/><stop offset="1" stop-color="#d1d3d4"/></linearGradient></defs><title>codeigniter</title><g id="Layer_2" data-name="Layer 2"><g id="Layer_2-2" data-name="Layer 2"><polyline class="cls-1" points="6.83 3.37 6.83 0.5 75.5 0.5 75.5 25.24 6.83 25.24 6.83 22.67"/><path class="cls-2" d="M4.36,21.18a3,3,0,0,1-1.88-2.57,3.64,3.64,0,0,1,1.68-2.87,1.27,1.27,0,0,0,.1,1.19,1.09,1.09,0,0,0,1.19.39,1.16,1.16,0,0,0,.49-2c-.59-.69-1.19-1.38-1-2.27a2,2,0,0,1,.79-1.19c-.29.69.5,1.48,1.09,1.78A22.59,22.59,0,0,1,9.6,15.54,3.62,3.62,0,0,1,11,18.61a3.59,3.59,0,0,1-2.48,2.57c2.48-.59,5.05-2.47,5.05-5.24,0-2.28-1.48-4-3.46-5a.1.1,0,0,1-.1-.1.37.37,0,0,1,.1.3v.1h0c0,.1-.1.19-.1.29h0a1.25,1.25,0,0,1-2,.1c-.79-1.09,0-2.17.1-3.36A3.67,3.67,0,0,0,6.44,4.75c.59,1-.2,2.28-.8,3A17.56,17.56,0,0,1,3.57,9.6c-.7.8-1.39,1.49-2,2.28A6.51,6.51,0,0,0,.2,17.52,5.12,5.12,0,0,0,4.36,21.18Z"/><rect class="cls-3" x="18.41" y="9.5" width="51.75" height="8.51"/><text class="cls-4" transform="translate(18.37 16.65)">Codeigniter</text></g></g></svg>