<svg xmlns="http://www.w3.org/2000/svg" xmlns:xlink="http://www.w3.org/1999/xlink" viewBox="0 0 76.2 27.43"><defs><style>.cls-1{stroke:#919191;stroke-miterlimit:10;fill:url(#linear-gradient);}.cls-2{fill:#439934;}.cls-10,.cls-11,.cls-12,.cls-13,.cls-14,.cls-15,.cls-2,.cls-3,.cls-4,.cls-5,.cls-6,.cls-7,.cls-8,.cls-9{fill-rule:evenodd;}.cls-3{fill:#45a538;}.cls-4{fill:#46a037;}.cls-5{fill:#409433;}.cls-6{fill:#4faa41;}.cls-7{fill:#4aa73c;}.cls-8{fill:#57ae47;}.cls-9{fill:#60b24f;}.cls-10{fill:#a9aa88;}.cls-11{fill:#b6b598;}.cls-12{fill:#c2c1a7;}.cls-13{fill:#cecdb7;}.cls-14{fill:#dbdac7;}.cls-15{fill:#ebe9dc;}.cls-16{isolation:isolate;font-size:8.98px;font-family:Poppins-Medium, Poppins;font-weight:500;}</style><linearGradient id="linear-gradient" x1="360.24" y1="-2027.65" x2="431.78" y2="-2027.65" gradientTransform="matrix(1, 0, 0, -1, -356, -2013.93)" gradientUnits="userSpaceOnUse"><stop offset="0" stop-color="#fff"/><stop offset="1" stop-color="#d1d3d4"/></linearGradient></defs><title>mangodb</title><g id="Layer_2" data-name="Layer 2"><g id="Layer_2-2" data-name="Layer 2"><polyline class="cls-1" points="4.24 3.56 4.24 0.5 75.7 0.5 75.7 26.93 4.24 26.93 4.24 24.18"/><path class="cls-2" d="M7.71,10.94a8.37,8.37,0,0,1,.47,2.14A9.54,9.54,0,0,1,8,15.8l0,.07H7.82c-.5.07-1,.16-1.49.24l-1.55.25c-.18,0-.41,0-.48.25h0l0-1.51,0-3.63.24-.05,1.18-.19L7.09,11Z"/><path class="cls-3" d="M3.77,21c-.26-.22-.52-.43-.76-.66A9.32,9.32,0,0,1,.28,15.93,7.29,7.29,0,0,1,0,14.46a9,9,0,0,1,0-1A12.6,12.6,0,0,1,.48,10.7v0s.07.06.08.1c.26.78.53,1.56.79,2.33q1.22,3.68,2.45,7.33a.6.6,0,0,0,.09.13Z"/><path class="cls-4" d="M7.71,10.94,7.09,11l-1.41.22-1.18.19-.24.05v-.16c0-.13,0-.26,0-.39l0-2.46c0-.52,0-1,0-1.54l0-1c0-.17,0-.34,0-.51a1.51,1.51,0,0,1,0-.3l.36.71a4.86,4.86,0,0,0,.8,1A10.54,10.54,0,0,1,7.71,10.94Z"/><path class="cls-5" d="M4.26,16.63h0c.07-.26.3-.22.48-.25l1.55-.25c.5-.08,1-.17,1.49-.24H8c-.09.34-.16.68-.28,1s-.3.73-.47,1.08a7.78,7.78,0,0,1-1,1.46,12.35,12.35,0,0,1-.93,1c-.18.18-.39.32-.58.48l-.06,0-.18-.15-.19-.42a6.59,6.59,0,0,1-.2-1.47V18.7l0-.36,0-.37c0-.45,0-.9,0-1.34Z"/><path class="cls-6" d="M4.26,16.63c0,.44,0,.89,0,1.34,0,.12,0,.25,0,.37l-.12,0c-.25-.75-.51-1.49-.76-2.23l-1.23-3.7-1-3A.41.41,0,0,0,1,9.35L1.72,8a.91.91,0,0,1,.07.14l1,3c.43,1.31.87,2.62,1.3,3.93,0,.05,0,.1.08.16l.1-.12Z"/><path class="cls-7" d="M1,9.35a.41.41,0,0,1,.1.13c.33,1,.67,2,1,3l1.23,3.69c.25.74.51,1.48.76,2.23l.12,0,0,.36,0,.09c0,.4-.08.8-.13,1.19a5.59,5.59,0,0,1-.11.59.6.6,0,0,1-.09-.13q-1.23-3.66-2.45-7.33c-.26-.77-.53-1.55-.79-2.33,0,0,0-.07-.08-.1C.66,10.24.82,9.79,1,9.35Z"/><path class="cls-8" d="M4.29,15.12l-.1.12c0-.06-.06-.11-.08-.16-.43-1.31-.87-2.62-1.3-3.93l-1-3A.91.91,0,0,0,1.72,8l.91-1.19a1.25,1.25,0,0,1,.08.12l.75,2.21.69,2.07s.07.08.11.12v.16Z"/><path class="cls-9" d="M4.26,11.33s-.09-.07-.11-.12L3.46,9.14,2.71,6.92s-.06-.07-.08-.11c.29-.29.58-.59.88-.86A1.23,1.23,0,0,0,4,5.05.17.17,0,0,1,4,5l.08.2a1.51,1.51,0,0,0,0,.3c0,.17,0,.34,0,.51l0,1c0,.51,0,1,0,1.54l0,2.46C4.24,11.07,4.25,11.2,4.26,11.33Z"/><path class="cls-10" d="M3.9,20.57A5.59,5.59,0,0,0,4,20c0-.39.09-.79.13-1.19h0a6.59,6.59,0,0,0,.2,1.47s-.06.07-.07.11c-.11.31-.21.62-.32.92a.48.48,0,0,1-.09.11L3.77,21Z"/><path class="cls-11" d="M3.88,21.4A.48.48,0,0,0,4,21.29c.11-.3.21-.61.32-.92,0,0,0-.07.07-.11l.19.42a.91.91,0,0,0-.11.16l-.36,1.05c0,.05-.06.08-.1.11Z"/><path class="cls-12" d="M4,22s.09-.06.1-.11l.36-1.05a.91.91,0,0,1,.11-.16l.19.15a.33.33,0,0,0-.11.32l-.06.18s-.06.05-.07.09c-.13.36-.25.72-.37,1.08a.38.38,0,0,1-.1.12c0-.2,0-.41-.05-.62Z"/><path class="cls-13" d="M4,22.62a.38.38,0,0,0,.1-.12c.12-.36.24-.72.37-1.08,0,0,0-.06.07-.09l-.07.83s0,0-.06.07c-.09.24-.17.49-.26.73a1,1,0,0,1-.08.14S4,23,4,23,4,22.75,4,22.62Z"/><path class="cls-14" d="M4.1,23.1A1,1,0,0,0,4.18,23c.09-.24.17-.49.26-.73,0,0,0-.05.06-.07v.54l-.18.47Z"/><path class="cls-15" d="M4.32,23.17l.18-.47,0,.56Z"/><path class="cls-13" d="M4.63,21.15a.33.33,0,0,1,.11-.32l0,0Z"/><path class="cls-6" d="M4.16,18.79h0l0-.09Z"/><text class="cls-16" transform="translate(18.65 16.82)">MongoDB</text></g></g></svg>