<svg xmlns="http://www.w3.org/2000/svg" xmlns:xlink="http://www.w3.org/1999/xlink" viewBox="0 0 76.82 26.01"><defs><style>.cls-1{stroke:#919191;stroke-miterlimit:10;fill:url(#linear-gradient);}.cls-2{fill:#00618a;}.cls-3{isolation:isolate;font-size:8.5px;font-family:Poppins-Medium, Poppins;font-weight:500;}</style><linearGradient id="linear-gradient" x1="364.58" y1="-2107.55" x2="432.39" y2="-2107.55" gradientTransform="matrix(1, 0, 0, -1, -356, -2094.54)" gradientUnits="userSpaceOnUse"><stop offset="0" stop-color="#fff"/><stop offset="1" stop-color="#d1d3d4"/></linearGradient></defs><title>my-sql</title><g id="Layer_2" data-name="Layer 2"><g id="Layer_2-2" data-name="Layer 2"><polyline class="cls-1" points="8.58 3.4 8.58 0.5 76.32 0.5 76.32 25.52 8.58 25.52 8.58 23.01"/><g id="original-wordmark"><path class="cls-2" d="M16,17.67a7.14,7.14,0,0,0-2.31.3c-.2.1-.5.1-.5.3s.1.3.2.4a2,2,0,0,0,.6.7,2.18,2.18,0,0,0,.8.5c.51.3,1,.4,1.41.7s.5.4.8.6a1.38,1.38,0,0,0,.4.3h0c-.1-.1-.1-.3-.2-.4l-.4-.4a4.56,4.56,0,0,0-1.2-1.2c-.4-.3-1.21-.6-1.41-1.1h0a1.88,1.88,0,0,0,.8-.2c.41-.1.81-.1,1.21-.2.2-.1.4-.1.6-.2v-.1c-.2-.2-.4-.5-.6-.7-.6-.5-1.31-1-1.91-1.5l-1.2-.6c-.1-.1-.4-.1-.5-.2-.2-.3-.3-.6-.5-.9-.3-.71-.7-1.41-1-2.11a8.43,8.43,0,0,0-.6-1.4,12.15,12.15,0,0,0-4.6-4.4,3.81,3.81,0,0,0-1.5-.5,2.77,2.77,0,0,1-.9-.1,2.18,2.18,0,0,1-.5-.4c-.7-.4-2.4-1.4-2.9-.1-.3.8.5,1.5.8,1.9a4.7,4.7,0,0,1,.6.9c.1.2.1.4.2.6.2.5.4,1.1.6,1.6.1.2.3.5.4.7s.3.2.3.4c-.2.2-.2.6-.3.9a5,5,0,0,0,.4,4c.2.3.6,1,1.2.7s.4-.9.6-1.5a.37.37,0,0,1,.1-.3H5c.2.3.3.7.5,1A7.68,7.68,0,0,0,7,17.27c.3.2.5.6.9.7h0c-.1-.1-.2-.2-.3-.2-.2-.2-.4-.5-.6-.7a15.92,15.92,0,0,1-1.3-2.2,9.74,9.74,0,0,1-.5-1.1c-.1-.1-.1-.41-.2-.41-.2.31-.4.51-.6.81a8.42,8.42,0,0,0-.3,1.8H4c-.4-.1-.5-.5-.7-.8A5,5,0,0,1,3.17,12c.1-.3.4-1,.3-1.3a2.18,2.18,0,0,0-.4-.5,2,2,0,0,1-.4-.8c-.3-.7-.4-1.4-.7-2.1a4.7,4.7,0,0,0-.6-.9,7.05,7.05,0,0,1-.7-.9A.75.75,0,0,1,.57,5c0-.1.1-.1.2-.2a1.13,1.13,0,0,1,.8.1l1.2.6c.2.1.4.3.6.4h.2c.4.1.8,0,1.2.1a8.86,8.86,0,0,1,1.7.8,10.47,10.47,0,0,1,3.7,4.1c.1.3.2.5.3.8.2.6.6,1.2.8,1.7a7.8,7.8,0,0,0,.8,1.61,4.33,4.33,0,0,0,1.2.5c.2.1.6.2.8.3a9,9,0,0,1,1.21.8C15.38,17.17,16,17.47,16,17.67Z"/><path class="cls-2" d="M3.88,7.41a.9.9,0,0,0-.5.1h0c.1.2.3.3.4.5l.3.6h0c.2-.1.2-.3.2-.6a.31.31,0,0,1-.1-.2A.68.68,0,0,0,3.88,7.41Z"/></g><text class="cls-3" transform="translate(33.04 16.95)">MySql</text></g></g></svg>