<svg xmlns="http://www.w3.org/2000/svg" xmlns:xlink="http://www.w3.org/1999/xlink" viewBox="0 0 75.5 26.1"><defs><style>.cls-1{stroke:#919191;stroke-miterlimit:10;fill:url(#linear-gradient);}.cls-2{fill:#83cd29;}.cls-3{isolation:isolate;font-size:8.53px;font-family:Poppins-Medium, Poppins;font-weight:500;}</style><linearGradient id="linear-gradient" x1="363.13" y1="-2323.38" x2="431.08" y2="-2323.38" gradientTransform="matrix(1, 0, 0, -1, -356, -2310.33)" gradientUnits="userSpaceOnUse"><stop offset="0" stop-color="#fff"/><stop offset="1" stop-color="#d1d3d4"/></linearGradient></defs><title>noed</title><g id="Layer_2" data-name="Layer 2"><g id="Layer_2-2" data-name="Layer 2"><polyline class="cls-1" points="7.13 3.41 7.13 0.5 75 0.5 75 25.6 7.13 25.6 7.13 22.99"/><path id="path30" class="cls-2" d="M6.93,21a1.42,1.42,0,0,1-.6-.2l-1.91-1.2c-.3-.2-.1-.2-.1-.3a4,4,0,0,0,.9-.41h.1l1.51.91H7l5.82-3.42c.1,0,.1-.1.1-.2V9.44c0-.1,0-.1-.1-.21L7,6.12h-.2L1,9.54c-.1,0-.1.1-.1.2v6.72c0,.1,0,.1.1.2l1.61.91C3.51,18,4,17.47,4,17V10.34a.22.22,0,0,1,.2-.2h.7a.22.22,0,0,1,.2.2V17c0,1.2-.6,1.8-1.71,1.8a2.21,2.21,0,0,1-1.3-.4L.6,17.47A1.15,1.15,0,0,1,0,16.36V9.64A1.39,1.39,0,0,1,.6,8.53L6.33,5.22a1.27,1.27,0,0,1,1.2,0l5.82,3.41A1.15,1.15,0,0,1,14,9.74v6.72a1.37,1.37,0,0,1-.61,1.11L7.53,21h-.6"/><path id="path32" class="cls-2" d="M8.73,16.36c-2.61,0-3.11-1.2-3.11-2.21a.22.22,0,0,1,.2-.2h.81a.35.35,0,0,1,.2.1c.1.81.5,1.21,2,1.21,1.2,0,1.7-.3,1.7-.9,0-.41-.1-.71-2.11-.81-1.6-.2-2.61-.5-2.61-1.81s1-1.9,2.71-1.9c1.91,0,2.82.6,2.92,2V12l-.1.1h-.81a.14.14,0,0,1-.2,0c-.2-.81-.6-1.11-1.81-1.11s-1.5.5-1.5.8.2.51,2,.81,2.61.6,2.61,1.81-1,2-2.92,2"/><text class="cls-3" transform="translate(28.41 17)">NodeJs</text></g></g></svg>