<svg xmlns="http://www.w3.org/2000/svg" xmlns:xlink="http://www.w3.org/1999/xlink" viewBox="0 0 76.01 25.71"><defs><style>.cls-1{stroke:#919191;stroke-miterlimit:10;fill:url(#linear-gradient);}.cls-2{fill:#61dafb;}.cls-3{isolation:isolate;font-size:8.4px;font-family:Poppins-Medium, Poppins;font-weight:500;}</style><linearGradient id="linear-gradient" x1="364.6" y1="-2672.59" x2="431.51" y2="-2672.59" gradientTransform="matrix(1, 0, 0, -1, -356, -2659.73)" gradientUnits="userSpaceOnUse"><stop offset="0" stop-color="#fff"/><stop offset="1" stop-color="#d1d3d4"/></linearGradient></defs><title>react</title><g id="Layer_2" data-name="Layer 2"><g id="Layer_2-2" data-name="Layer 2"><polyline class="cls-1" points="8.6 3.37 8.6 0.5 75.51 0.5 75.51 25.21 8.6 25.21 8.6 22.64"/><circle class="cls-2" cx="8.8" cy="12.85" r="1.58"/><path class="cls-2" d="M8.8,18.78c1.28,1.19,2.47,2,3.45,2a2.8,2.8,0,0,0,.89-.2c.89-.49,1.19-1.78.89-3.65-.1-.3-.1-.7-.19-1,.29-.1.69-.2,1-.3C16.6,14.93,17.59,14,17.59,13s-1-2-2.77-2.67c-.29-.09-.59-.19-1-.29A3.85,3.85,0,0,0,14,9c.3-1.88,0-3.16-.89-3.66a1.44,1.44,0,0,0-.89-.2,5.3,5.3,0,0,0-3.45,2c-1.29-1.18-2.47-2-3.46-2-.4-.09-.7-.09-.89.1-.89.5-1.29,1.78-1,3.66.1.3.1.69.2,1-.3.1-.7.2-1,.3C1,10.88,0,11.87,0,12.85s1,2,2.77,2.67c.29.1.59.2,1,.3a3.49,3.49,0,0,0-.2,1c-.3,1.87,0,3.16.89,3.65a1.44,1.44,0,0,0,.89.2C6.33,20.66,7.51,20,8.8,18.78Zm-1-2.37h2a10.27,10.27,0,0,1-1,1.19A11.55,11.55,0,0,0,7.81,16.41ZM5.73,14.63a4.94,4.94,0,0,0,.5.79c-.5-.1-1.09-.19-1.49-.29a8.7,8.7,0,0,1,.5-1.49A3,3,0,0,0,5.73,14.63ZM4.64,10.48l1.49-.29c-.2.29-.3.59-.5.88s-.29.6-.49.89A8.9,8.9,0,0,0,4.64,10.48Zm1,2.37a10.8,10.8,0,0,1,.79-1.38c.3-.49.6-.89.89-1.38.5,0,1.09-.1,1.58-.1a8,8,0,0,1,1.59.1c.29.39.59.89.89,1.38s.49.89.79,1.38a10.9,10.9,0,0,1-.79,1.39c-.3.49-.6.89-.89,1.38-.5,0-1.09.1-1.59.1a7.93,7.93,0,0,1-1.58-.1c-.29-.39-.59-.89-.89-1.38A10.9,10.9,0,0,1,5.63,12.85ZM12.35,12c-.19-.29-.29-.59-.49-.89a7.37,7.37,0,0,0-.49-.79c.49.1,1.08.2,1.48.3A4.57,4.57,0,0,1,12.35,12Zm0,1.78a8.7,8.7,0,0,1,.5,1.49l-1.48.29c.19-.29.29-.59.49-.89A3.74,3.74,0,0,0,12.35,13.74Zm.5,6a.75.75,0,0,1-.5.1c-.89,0-1.87-.69-3-1.68.49-.49,1-1.19,1.48-1.78A16.75,16.75,0,0,0,13.14,16c.1.29.1.59.2.89C13.54,18.39,13.34,19.48,12.85,19.77Zm.89-9.09c2,.59,3.06,1.38,3.06,2.17s-.79,1.39-2.17,1.88l-.89.3a10.76,10.76,0,0,0-.89-2.18A13.29,13.29,0,0,0,13.74,10.68ZM12.35,5.84a.75.75,0,0,1,.5.1c.59.29.79,1.38.49,2.86a2.86,2.86,0,0,1-.2.89,14.12,14.12,0,0,0-2.27-.39A13.29,13.29,0,0,0,9.39,7.52,4.84,4.84,0,0,1,12.35,5.84ZM9.78,9.3h-2a9.45,9.45,0,0,1,1-1.19C9.09,8.51,9.49,8.9,9.78,9.3ZM4.84,5.94a.75.75,0,0,1,.5-.1c.89,0,1.87.69,3,1.68C7.81,8,7.31,8.7,6.82,9.3a14.12,14.12,0,0,0-2.27.39c-.1-.3-.1-.59-.2-.89C4.05,7.32,4.25,6.23,4.84,5.94ZM4,15C2,14.43.89,13.64.89,12.85S1.68,11.47,3.06,11a4.76,4.76,0,0,1,.89-.3,10.46,10.46,0,0,0,.89,2.17A13.37,13.37,0,0,0,4,15Zm.3,1.88a2.8,2.8,0,0,1,.2-.89,16.75,16.75,0,0,0,2.27.39A14,14,0,0,0,8.2,18.19a5.08,5.08,0,0,1-3,1.68.75.75,0,0,1-.5-.1C4.25,19.48,4.05,18.39,4.25,16.91Z"/><text class="cls-3" transform="translate(30.26 16.75)">React</text></g></g></svg>