<svg xmlns="http://www.w3.org/2000/svg" xmlns:xlink="http://www.w3.org/1999/xlink" viewBox="0 0 76.01 25.71"><defs><style>.cls-1{fill:none;}.cls-2{stroke:#919191;stroke-miterlimit:10;fill:url(#linear-gradient);}.cls-14,.cls-3{isolation:isolate;}.cls-3{font-size:8.4px;font-family:Poppins-Medium, Poppins;font-weight:500;}.cls-4{fill:#177bbf;}.cls-5{fill:#024774;}.cls-6{fill:#044a78;}.cls-7{fill:url(#linear-gradient-2);}.cls-8{fill:#0a74ba;}.cls-9{fill:#fff;}.cls-10{fill:url(#linear-gradient-3);}.cls-11{fill:url(#linear-gradient-4);}.cls-12{fill:#034775;}.cls-13{fill:#034876;}.cls-15{clip-path:url(#clip-path);}.cls-16{fill:#085080;}.cls-17{fill:#074d7d;}.cls-18{fill:#054b7a;}.cls-19{fill:#044977;}.cls-20{fill:url(#linear-gradient-5);}.cls-21{clip-path:url(#clip-path-2);}.cls-22{clip-path:url(#clip-path-3);}.cls-23{fill:url(#linear-gradient-6);}.cls-24{clip-path:url(#clip-path-4);}.cls-25{clip-path:url(#clip-path-5);}.cls-26{clip-path:url(#clip-path-6);}</style><linearGradient id="linear-gradient" x1="367.37" y1="-359.62" x2="431.51" y2="-359.62" gradientTransform="matrix(1, 0, 0, -1, -356, -346.77)" gradientUnits="userSpaceOnUse"><stop offset="0" stop-color="#fff"/><stop offset="1" stop-color="#d1d3d4"/></linearGradient><linearGradient id="linear-gradient-2" x1="359.06" y1="-364.46" x2="359.06" y2="-359.4" gradientTransform="matrix(1, 0, 0, -1, -356, -346.77)" gradientUnits="userSpaceOnUse"><stop offset="0" stop-color="#3c94d0"/><stop offset="0.1" stop-color="#0683c2"/><stop offset="0.4" stop-color="#0a74ba"/><stop offset="0.6" stop-color="#0a74ba"/><stop offset="0.9" stop-color="#0683c2"/><stop offset="1" stop-color="#3c94d0"/></linearGradient><linearGradient id="linear-gradient-3" x1="370.18" y1="-364.46" x2="370.18" y2="-359.4" xlink:href="#linear-gradient-2"/><linearGradient id="linear-gradient-4" x1="376.36" y1="-364.46" x2="376.36" y2="-359.4" xlink:href="#linear-gradient-2"/><clipPath id="clip-path"><path class="cls-1" d="M11,16.31v.1c0,.5-.1,1.68-2.27,1.68C6.13,18.09,6,16.81,6,16.21v-.09C6,16.71,6.13,18,8.7,18,11,18,11,16.81,11,16.31Z"/></clipPath><linearGradient id="linear-gradient-5" x1="365.14" y1="-364.73" x2="365.14" y2="-357.24" gradientTransform="matrix(1, 0, 0, -1, -356, -346.77)" gradientUnits="userSpaceOnUse"><stop offset="0" stop-color="#3c94d0"/><stop offset="0.1" stop-color="#0683c2"/><stop offset="0.4" stop-color="#0a74ba"/><stop offset="0.6" stop-color="#0a74ba"/><stop offset="0.75" stop-color="#0683c2"/><stop offset="0.9" stop-color="#3c94d0"/></linearGradient><clipPath id="clip-path-2"><path class="cls-1" d="M6.13,9.69v0Z"/></clipPath><clipPath id="clip-path-3"><path class="cls-1" d="M11.07,9.79v0Z"/></clipPath><linearGradient id="linear-gradient-6" x1="364.01" y1="-362.18" x2="364.01" y2="-354.69" gradientTransform="matrix(1, 0, 0, -1, -356, -346.77)" gradientUnits="userSpaceOnUse"><stop offset="0.1" stop-color="#0683c2"/><stop offset="0.4" stop-color="#0a74ba"/><stop offset="0.65" stop-color="#3c94d0"/><stop offset="1" stop-color="#6bb2e1"/></linearGradient><clipPath id="clip-path-4"><path class="cls-1" d="M7.31,9.89v-.1c0-.3,0-.89,1.09-.89s1.19.59,1.19,1V10c0-.4-.1-1-1.19-1S7.31,9.69,7.31,9.89Z"/></clipPath><clipPath id="clip-path-5"><path class="cls-1" d="M7.31,9.89v-.1c0-.3,0-.89,1.09-.89s1.19.59,1.19,1V10c0-.4-.1-1-1.19-1S7.31,9.59,7.31,9.89Z"/></clipPath><clipPath id="clip-path-6"><path class="cls-1" d="M11,16.21v.1c0,.5-.1,1.68-2.27,1.68C6.13,18,6,16.71,6,16.12V16c0,.69.1,1.87,2.67,1.87C11,17.89,11,16.71,11,16.21Z"/></clipPath></defs><title>ajax</title><g id="Layer_2" data-name="Layer 2"><g id="Layer_2-2" data-name="Layer 2"><polyline class="cls-2" points="11.37 3.37 11.37 0.5 75.51 0.5 75.51 25.21 11.37 25.21 11.37 22.64"/><rect class="cls-1" x="35.68" y="8.41" width="17.99" height="8.8"/><text class="cls-3" transform="translate(35.69 15.58)">Ajax</text><path class="cls-4" d="M12.25,12.36l-1.87-1.88L8.5,12.36l.69.69.59-.59v3.66c0,.19,0,.88-1.08.88s-1.19-.59-1.19-1v-.1H6V16c0,.59-.1,2,2.67,2C11.07,18,11,16.71,11,16.21V12.66h0v-.2l.59.59Z"/><polygon class="cls-5" points="3.85 15.82 3.85 15.92 3.06 13.94 3.06 13.84 3.85 15.82"/><polygon class="cls-6" points="3.06 13.84 3.06 13.94 2.17 15.92 2.17 15.82 3.06 13.84"/><rect class="cls-5" x="1.88" y="16.61" width="2.37" height="0.1"/><path class="cls-7" d="M3.85,12.66l2.28,5H4.64l-.39-1.09H1.88l-.4,1.09H0l2.27-5ZM2.17,15.82H3.85l-.79-2-.89,2"/><path class="cls-8" d="M3.85,12.66l2.28,5H4.64l-.39-1.09H1.88l-.4,1.09H0l2.27-5ZM2.17,15.82H3.85l-.79-2-.89,2"/><rect class="cls-5" y="17.7" width="1.38" height="0.1"/><polygon class="cls-6" points="1.88 16.61 1.88 16.81 1.38 17.8 1.38 17.7 1.88 16.61"/><rect class="cls-5" x="4.64" y="17.7" width="1.48" height="0.1"/><polygon class="cls-5" points="4.64 17.7 4.64 17.8 4.25 16.81 4.25 16.61 4.64 17.7"/><polygon class="cls-9" points="3.85 15.72 3.85 15.82 3.06 13.84 3.06 13.74 3.85 15.72"/><polygon class="cls-9" points="3.06 13.74 3.06 13.84 2.17 15.82 2.17 15.72 3.06 13.74"/><rect class="cls-9" x="1.88" y="16.61" width="2.37" height="0.1"/><rect class="cls-9" y="17.6" width="1.38" height="0.1"/><polygon class="cls-9" points="1.88 16.61 1.88 16.71 1.38 17.7 1.38 17.6 1.88 16.61"/><rect class="cls-9" x="4.64" y="17.6" width="1.48" height="0.1"/><polygon class="cls-9" points="4.64 17.6 4.64 17.7 4.25 16.71 4.25 16.61 4.64 17.6"/><path class="cls-10" d="M14.92,12.66l2.28,5H15.71l-.39-1.09H13l-.4,1.09H11.17l2.27-5Zm-1.68,3.16h1.68l-.79-2-.89,2"/><polygon class="cls-5" points="14.92 15.82 14.92 15.92 14.13 13.94 14.13 13.84 14.92 15.82"/><polygon class="cls-6" points="14.13 13.84 14.13 13.94 13.24 15.92 13.24 15.82 14.13 13.84"/><rect class="cls-5" x="12.95" y="16.61" width="2.37" height="0.1"/><rect class="cls-5" x="11.07" y="17.7" width="1.38" height="0.1"/><polygon class="cls-6" points="12.95 16.61 12.95 16.81 12.45 17.8 12.45 17.7 12.95 16.61"/><rect class="cls-5" x="15.71" y="17.7" width="1.48" height="0.1"/><polygon class="cls-5" points="15.71 17.7 15.71 17.8 15.32 16.81 15.32 16.61 15.71 17.7"/><polygon class="cls-9" points="14.92 15.72 14.92 15.82 14.13 13.84 14.13 13.74 14.92 15.72"/><polygon class="cls-9" points="14.13 13.74 14.13 13.84 13.24 15.82 13.24 15.72 14.13 13.74"/><rect class="cls-9" x="12.95" y="16.61" width="2.37" height="0.1"/><rect class="cls-9" x="11.07" y="17.6" width="1.38" height="0.1"/><polygon class="cls-9" points="12.95 16.61 12.95 16.71 12.45 17.7 12.45 17.6 12.95 16.61"/><rect class="cls-9" x="15.71" y="17.6" width="1.48" height="0.1"/><polygon class="cls-9" points="15.71 17.6 15.71 17.7 15.32 16.71 15.32 16.61 15.71 17.6"/><polygon class="cls-11" points="21.05 15.13 23.23 17.7 21.55 17.7 20.36 16.02 19.07 17.7 17.49 17.7 19.57 15.13 17.59 12.66 19.17 12.66 20.36 14.24 21.55 12.66 23.03 12.66 21.05 15.13"/><polygon class="cls-12" points="23.03 12.66 23.03 12.76 21.05 15.23 21.05 15.13 23.03 12.66"/><polygon class="cls-5" points="19.57 15.13 19.57 15.23 17.59 12.76 17.59 12.66 19.57 15.13"/><polygon class="cls-5" points="21.55 17.7 21.55 17.8 20.36 16.11 20.36 16.02 21.55 17.7"/><rect class="cls-5" x="17.49" y="17.7" width="1.58" height="0.1"/><polygon class="cls-13" points="20.36 16.02 20.36 16.11 19.07 17.8 19.07 17.7 20.36 16.02"/><rect class="cls-5" x="21.54" y="17.7" width="1.68" height="0.1"/><polygon class="cls-9" points="23.03 12.56 23.03 12.66 21.05 15.13 21.05 15.03 23.03 12.56"/><polygon class="cls-9" points="19.57 15.03 19.57 15.13 17.59 12.66 17.59 12.56 19.57 15.03"/><polygon class="cls-9" points="21.55 17.6 21.55 17.7 20.36 16.02 20.36 15.92 21.55 17.6"/><rect class="cls-9" x="17.49" y="17.6" width="1.58" height="0.1"/><polygon class="cls-9" points="20.36 15.92 20.36 16.02 19.07 17.7 19.07 17.6 20.36 15.92"/><rect class="cls-9" x="21.54" y="17.6" width="1.68" height="0.1"/><polygon class="cls-5" points="9.78 12.36 9.78 12.56 9.19 13.15 9.19 13.05 9.78 12.36"/><polygon class="cls-5" points="9.19 13.05 9.19 13.15 8.5 12.46 8.5 12.36 9.19 13.05"/><polygon class="cls-5" points="11.56 13.05 11.56 13.15 10.97 12.56 10.97 12.46 11.56 13.05"/><polygon class="cls-5" points="12.26 12.36 12.26 12.46 11.56 13.15 11.56 13.05 12.26 12.36"/><g class="cls-14"><g class="cls-15"><g class="cls-14"><path class="cls-16" d="M11,16.31v0"/><path class="cls-17" d="M11,16.61v.1c0,.1,0,.2-.1.2v-.1c.1,0,.1-.1.1-.2"/><path class="cls-18" d="M10.87,16.91V17a.35.35,0,0,1-.1.2v-.1a.3.3,0,0,0,.1-.19"/><path class="cls-19" d="M10.87,17.1v.1c-.2.4-.79.89-2.17.89C6.13,18.09,6,16.81,6,16.21v-.09C6,16.71,6.13,18,8.7,18a2.48,2.48,0,0,0,2.17-.89"/></g></g></g><path class="cls-20" d="M10.38,10.48l1.87,1.88-.69.69L11,12.46v3.75c0,.4.1,1.78-2.27,1.78C5.93,18,6,16.61,6,16v-.2H7.41v.1c0,.39.1,1,1.19,1s1.09-.6,1.09-.89V12.36l-.6.59-.69-.69Z"/><g class="cls-14"><g class="cls-21"><g class="cls-14"><path class="cls-19" d="M6.13,9.69v0h0"/></g></g></g><g class="cls-14"><g class="cls-22"><g class="cls-14"><path class="cls-16" d="M11.07,9.79v0"/></g></g></g><path class="cls-23" d="M8.5,7.91c2.77,0,2.67,1.39,2.67,2V10H9.78v-.1c0-.4-.09-1-1.18-1s-1.09.59-1.09.89v3.66l.4-.6.69.7L6.72,15.42,4.84,13.55l.69-.7.6.6V9.69C6.13,9.2,6,7.91,8.5,7.91Z"/><path class="cls-8" d="M14.92,12.66l2.28,5H15.71l-.39-1.09H13l-.4,1.09H11.17l2.27-5Zm-1.68,3.16h1.68l-.79-2-.89,2"/><polygon class="cls-8" points="21.05 15.13 23.23 17.7 21.55 17.7 20.36 16.02 19.07 17.7 17.49 17.7 19.57 15.13 17.59 12.66 19.17 12.66 20.36 14.24 21.55 12.66 23.03 12.66 21.05 15.13"/><path class="cls-8" d="M10.38,10.48l1.87,1.88-.69.69L11,12.46v3.75c0,.4.1,1.78-2.27,1.78C5.93,18,6,16.61,6,16v-.2H7.41v.1c0,.39.1,1,1.19,1s1.09-.6,1.09-.89V12.36l-.6.59-.69-.69Z"/><path class="cls-8" d="M8.5,7.91c2.77,0,2.67,1.39,2.67,2V10H9.78v-.1c0-.4-.09-1-1.18-1s-1.09.59-1.09.89v3.66l.4-.6.69.7L6.72,15.42,4.84,13.55l.69-.7.6.6V9.69C6.13,9.2,6,7.91,8.5,7.91Z"/><g class="cls-14"><g class="cls-24"><g class="cls-14"><path class="cls-19" d="M9.69,9.89V10c0-.4-.1-1-1.19-1-.59,0-.89.2-1,.39V9.3c.1-.2.4-.4,1-.4,1.09,0,1.19.59,1.19,1"/><path class="cls-18" d="M7.41,9.39v0"/><path class="cls-17" d="M7.41,9.49v.1c-.1,0,0-.1,0-.1"/><path class="cls-16" d="M7.31,9.59v0"/></g></g></g><rect class="cls-5" x="9.69" y="10.09" width="1.38" height="0.1"/><polygon class="cls-5" points="8.6 13.55 8.6 13.64 6.72 15.52 6.72 15.42 8.6 13.55"/><polygon class="cls-5" points="6.72 15.42 6.72 15.52 4.84 13.64 4.84 13.55 6.72 15.42"/><g class="cls-14"><path id="SVGID" class="cls-9" d="M7.31,9.89v-.1c0-.3,0-.89,1.09-.89s1.19.59,1.19,1V10c0-.4-.1-1-1.19-1S7.31,9.59,7.31,9.89Z"/><g class="cls-25"><g class="cls-14"><path class="cls-9" d="M9.69,9.89V10c0-.4-.1-1-1.19-1-.59,0-.89.2-1,.39V9.3c.1-.2.4-.4,1-.4,1.09,0,1.19.59,1.19,1"/><path class="cls-9" d="M7.41,9.3v0"/><path class="cls-9" d="M7.41,9.39v.1c-.1,0,0,0,0-.1"/><path class="cls-9" d="M7.31,9.49v0"/></g></g></g><rect class="cls-9" x="9.69" y="9.99" width="1.38" height="0.1"/><polygon class="cls-9" points="8.6 13.45 8.6 13.55 6.72 15.42 6.72 15.32 8.6 13.45"/><polygon class="cls-9" points="6.72 15.32 6.72 15.42 4.84 13.55 4.84 13.45 6.72 15.32"/><polygon class="cls-9" points="9.78 12.36 9.78 12.46 9.19 13.05 9.19 12.95 9.78 12.36"/><polygon class="cls-9" points="9.19 12.95 9.19 13.05 8.5 12.36 8.5 12.26 9.19 12.95"/><polygon class="cls-9" points="11.56 12.95 11.56 13.05 10.97 12.46 10.97 12.36 11.56 12.95"/><polygon class="cls-9" points="12.26 12.26 12.26 12.36 11.56 13.05 11.56 12.95 12.26 12.26"/><g class="cls-14"><path id="SVGID-2" data-name="SVGID" class="cls-9" d="M11,16.21v.1c0,.5-.1,1.68-2.27,1.68C6.13,18,6,16.71,6,16.12V16c0,.69.1,1.87,2.67,1.87C11,17.89,11,16.71,11,16.21Z"/><g class="cls-26"><g class="cls-14"><path class="cls-9" d="M11,16.21v0"/><path class="cls-9" d="M11,16.51v.1c0,.1,0,.2-.1.2h0a.37.37,0,0,0,.1-.3"/><path class="cls-9" d="M10.87,16.81v.1a.35.35,0,0,1-.1.19V17c.1,0,.1-.09.1-.19"/><path class="cls-9" d="M10.87,17v.1c-.2.4-.79.89-2.17.89C6.13,18,6,16.71,6,16.12V16c0,.69.1,1.87,2.67,1.87,1.28,0,1.87-.39,2.17-.89"/></g></g></g></g></g></svg>