<svg xmlns="http://www.w3.org/2000/svg" xmlns:xlink="http://www.w3.org/1999/xlink" viewBox="0 0 76.01 25.71"><defs><style>.cls-1{stroke:#919191;stroke-miterlimit:10;fill:url(#linear-gradient);}.cls-2{fill:#a4c439;}.cls-3{isolation:isolate;font-size:8.4px;font-family:Poppins-Medium, Poppins;font-weight:500;}</style><linearGradient id="linear-gradient" x1="362.92" y1="-433.89" x2="431.51" y2="-433.89" gradientTransform="matrix(1, 0, 0, -1, -356, -421.04)" gradientUnits="userSpaceOnUse"><stop offset="0" stop-color="#fff"/><stop offset="1" stop-color="#d1d3d4"/></linearGradient></defs><title>android</title><g id="Layer_2" data-name="Layer 2"><g id="Layer_2-2" data-name="Layer 2"><polyline class="cls-1" points="6.92 3.37 6.92 0.5 75.51 0.5 75.51 25.21 6.92 25.21 6.92 22.64"/><path class="cls-2" d="M1,10a1,1,0,0,0-1,1v4.15a1,1,0,0,0,1,1,1.07,1.07,0,0,0,1-1V11a1,1,0,0,0-1-1m8.1-3.66.69-1.28c0-.1,0-.2-.09-.2s-.2,0-.2.1L8.8,6.23a4.12,4.12,0,0,0-1.88-.39,4.52,4.52,0,0,0-2,.39L4.25,5a.14.14,0,0,0-.2,0c-.1,0-.1.1,0,.19l.69,1.29A3.78,3.78,0,0,0,2.47,9.89h8.9A4.22,4.22,0,0,0,9.09,6.33m-4.25,2a.42.42,0,0,1-.39-.4.41.41,0,0,1,.39-.39.42.42,0,0,1,.4.39.43.43,0,0,1-.4.4m4.05,0a.43.43,0,0,1-.39-.4.4.4,0,0,1,.79,0,.43.43,0,0,1-.4.4m-6.32,2v6.23A1.1,1.1,0,0,0,3.66,17.6h.59V20a1.08,1.08,0,0,0,1.09,1,.94.94,0,0,0,1-1V17.8H7.61V20a1,1,0,0,0,1,1,.94.94,0,0,0,1-1V17.8h.79a1.1,1.1,0,0,0,1.08-1.09V10.28Zm11.07.7a1,1,0,1,0-2,0v4.15a1,1,0,0,0,2,0Z"/><text class="cls-3" transform="translate(25.41 15.76)">Android</text></g></g></svg>