<svg xmlns="http://www.w3.org/2000/svg" xmlns:xlink="http://www.w3.org/1999/xlink" viewBox="0 0 76 26.07"><defs><style>.cls-1{stroke:#919191;stroke-miterlimit:10;fill:url(#linear-gradient);}.cls-2{fill:#b3b3b3;}.cls-3{fill:#a6120d;}.cls-4{fill:#dd1b16;}.cls-5{fill:#f2f2f2;}.cls-6{fill:none;}.cls-7{isolation:isolate;font-size:8.52px;font-family:Poppins-Medium, Poppins;font-weight:500;}</style><linearGradient id="linear-gradient" x1="363.52" y1="-508.05" x2="431.5" y2="-508.05" gradientTransform="matrix(1, 0, 0, -1, -356, -495.02)" gradientUnits="userSpaceOnUse"><stop offset="0" stop-color="#fff"/><stop offset="1" stop-color="#d1d3d4"/></linearGradient></defs><title>angular</title><g id="Layer_2" data-name="Layer 2"><g id="Layer_2-2" data-name="Layer 2"><polyline class="cls-1" points="7.52 3.41 7.52 0.5 75.5 0.5 75.5 25.57 7.52 25.57 7.52 22.96"/><polygon class="cls-2" points="7.52 5.01 0 7.72 1.2 17.55 7.52 21.05 13.94 17.45 15.14 7.62 7.52 5.01"/><polygon class="cls-3" points="14.34 8.22 7.52 5.91 7.52 20.15 13.23 17.04 14.34 8.22"/><polygon class="cls-4" points="0.9 8.22 1.91 17.04 7.52 20.15 7.52 5.91 0.9 8.22"/><path class="cls-5" d="M9.42,13.53l-1.9.91h-2l-.9,2.3H2.91L7.52,6.42Zm-.2-.5L7.52,9.72,6.12,13h3.1Z"/><polygon class="cls-2" points="7.52 6.42 7.52 9.72 9.12 13.03 7.52 13.03 7.52 14.34 9.73 14.34 10.73 16.74 12.43 16.74 7.52 6.42"/><rect class="cls-6" x="21.36" y="8.42" width="43.92" height="9.42"/><text class="cls-7" transform="translate(21.37 15.61)">AngularJs</text></g></g></svg>