<svg xmlns="http://www.w3.org/2000/svg" xmlns:xlink="http://www.w3.org/1999/xlink" viewBox="0 0 75.85 25.45"><defs><style>.cls-1{stroke:#919191;stroke-miterlimit:10;fill:url(#linear-gradient);}.cls-2{isolation:isolate;font-size:8.31px;font-family:Poppins-Medium, Poppins;font-weight:500;}.cls-3{fill:url(#linear-gradient-2);}.cls-4{fill:url(#linear-gradient-3);}.cls-5{fill:url(#linear-gradient-4);}.cls-6{fill:#13569b;}.cls-7{fill:url(#linear-gradient-5);}.cls-8{fill:#266ab4;}.cls-9{fill:url(#linear-gradient-6);}.cls-10{fill:url(#linear-gradient-7);}.cls-11{fill:url(#linear-gradient-8);}.cls-12{fill:#2c75b2;}.cls-13{fill:#145b9e;}.cls-14{fill:url(#linear-gradient-9);}.cls-15{fill:#1982c5;}.cls-16{fill:url(#linear-gradient-10);}.cls-17{fill:#277bbf;}.cls-18{fill:url(#linear-gradient-11);}.cls-19{fill:url(#linear-gradient-12);}.cls-20{fill:#269fda;}.cls-21{fill:url(#linear-gradient-13);}.cls-22{fill:url(#linear-gradient-14);}.cls-23{fill:#2898d5;}.cls-24{fill:#295eac;}.cls-25{fill:#2862ae;}.cls-26{fill:#1d60ab;}.cls-27{fill:url(#linear-gradient-15);}.cls-28{fill:#61c5ec;}.cls-29{fill:url(#linear-gradient-16);}.cls-30{fill:url(#linear-gradient-17);}.cls-31{fill:url(#linear-gradient-18);}.cls-32{fill:url(#linear-gradient-19);}.cls-33{fill:url(#linear-gradient-20);}.cls-34{fill:#7ecbeb;}</style><linearGradient id="linear-gradient" x1="365.14" y1="-577.63" x2="431.35" y2="-577.63" gradientTransform="matrix(1, 0, 0, -1, -356, -564.91)" gradientUnits="userSpaceOnUse"><stop offset="0" stop-color="#fff"/><stop offset="1" stop-color="#d1d3d4"/></linearGradient><linearGradient id="linear-gradient-2" x1="1.1" y1="-634.33" x2="28.37" y2="-634.33" gradientTransform="matrix(1, 0, 0, -1, 0.33, -621.91)" gradientUnits="userSpaceOnUse"><stop offset="0" stop-color="#206bb5"/><stop offset="0.4" stop-color="#3dade2"/><stop offset="0.85" stop-color="#2397d4"/><stop offset="1" stop-color="#2397d4"/></linearGradient><linearGradient id="linear-gradient-3" x1="-178.93" y1="102.78" x2="-178.86" y2="102.78" gradientTransform="translate(15399.01 26798.58) rotate(90) scale(149.73)" gradientUnits="userSpaceOnUse"><stop offset="0" stop-color="#2693d1"/><stop offset="0.35" stop-color="#67cef4"/><stop offset="0.85" stop-color="#277bbf"/><stop offset="1" stop-color="#277bbf"/></linearGradient><linearGradient id="linear-gradient-4" x1="-179.05" y1="102.83" x2="-178.98" y2="102.83" gradientTransform="translate(15799.41 27500.78) rotate(90) scale(153.55)" gradientUnits="userSpaceOnUse"><stop offset="0" stop-color="#1377bc"/><stop offset="0.36" stop-color="#3dade2"/><stop offset="0.85" stop-color="#2dabe2"/><stop offset="1" stop-color="#2dabe2"/></linearGradient><linearGradient id="linear-gradient-5" x1="-191.14" y1="103.35" x2="-191.07" y2="103.35" gradientTransform="translate(-12615.43 -23336.93) rotate(-90) scale(122.18)" gradientUnits="userSpaceOnUse"><stop offset="0" stop-color="#2865b0"/><stop offset="0.5" stop-color="#3fbced"/><stop offset="1" stop-color="#3fbced" stop-opacity="0.42"/></linearGradient><linearGradient id="linear-gradient-6" x1="-179.17" y1="102.98" x2="-179.1" y2="102.98" gradientTransform="translate(16429.65 28571.91) rotate(90) scale(159.43)" xlink:href="#linear-gradient-2"/><linearGradient id="linear-gradient-7" x1="-179.51" y1="102.92" x2="-179.44" y2="102.92" gradientTransform="translate(17458.68 30439.34) rotate(90) scale(169.53)" gradientUnits="userSpaceOnUse"><stop offset="0" stop-color="#174479"/><stop offset="0.39" stop-color="#1d87c9"/><stop offset="0.78" stop-color="#165297"/><stop offset="1" stop-color="#165297"/></linearGradient><linearGradient id="linear-gradient-8" x1="799.67" y1="2381.85" x2="800.09" y2="2381.85" gradientTransform="translate(-3224.38 -9612.21) scale(4.04)" gradientUnits="userSpaceOnUse"><stop offset="0" stop-color="#3fbced" stop-opacity="0.7"/><stop offset="1" stop-color="#20acd8"/></linearGradient><linearGradient id="linear-gradient-9" x1="-191.33" y1="102.65" x2="-191.26" y2="102.65" gradientTransform="translate(-12198.06 -22755.99) rotate(-90) scale(119.02)" gradientUnits="userSpaceOnUse"><stop offset="0" stop-color="#166bb5"/><stop offset="0.6" stop-color="#5ec9f4" stop-opacity="0.55"/><stop offset="1" stop-color="#5ec9f4" stop-opacity="0.24"/></linearGradient><linearGradient id="linear-gradient-10" x1="-191.16" y1="104.31" x2="-191.08" y2="104.31" gradientTransform="translate(-12708.4 -23279.7) rotate(-90) scale(121.87)" gradientUnits="userSpaceOnUse"><stop offset="0" stop-color="#388dcc"/><stop offset="1" stop-color="#40a6de"/></linearGradient><linearGradient id="linear-gradient-11" x1="-191.33" y1="104.27" x2="-191.26" y2="104.27" gradientTransform="translate(-12348.26 -22649.06) rotate(-90) scale(118.46)" gradientUnits="userSpaceOnUse"><stop offset="0" stop-color="#269fda"/><stop offset="1" stop-color="#269fda" stop-opacity="0.55"/></linearGradient><linearGradient id="linear-gradient-12" x1="-192.47" y1="104.42" x2="-192.41" y2="104.42" gradientTransform="translate(-10447.7 -19249.88) rotate(-90) scale(100.1)" gradientUnits="userSpaceOnUse"><stop offset="0" stop-color="#1e5ba6"/><stop offset="0.5" stop-color="#269fda"/><stop offset="0.92" stop-color="#7fc5e9"/><stop offset="1" stop-color="#7fc5e9"/></linearGradient><linearGradient id="linear-gradient-13" x1="-199.45" y1="102.41" x2="-199.37" y2="102.41" gradientTransform="translate(-5790.96 -11300.54) rotate(-90) scale(56.72)" gradientUnits="userSpaceOnUse"><stop offset="0" stop-color="#269fda"/><stop offset="0.87" stop-color="#1795d3"/><stop offset="1" stop-color="#1795d3"/></linearGradient><linearGradient id="linear-gradient-14" x1="-178.14" y1="102.49" x2="-178.07" y2="102.49" gradientTransform="matrix(-23.06, 130.78, -130.78, -23.06, 9315.23, 25668.03)" gradientUnits="userSpaceOnUse"><stop offset="0" stop-color="#40a6de" stop-opacity="0.33"/><stop offset="0.96" stop-color="#2687c8"/><stop offset="1" stop-color="#2687c8"/></linearGradient><linearGradient id="linear-gradient-15" x1="-177.67" y1="103.55" x2="-177.6" y2="103.55" gradientTransform="translate(12831.61 21993.14) rotate(90) scale(123.74)" gradientUnits="userSpaceOnUse"><stop offset="0" stop-color="#258bcc"/><stop offset="0.5" stop-color="#2287c9"/><stop offset="1" stop-color="#164c8d"/></linearGradient><linearGradient id="linear-gradient-16" x1="-170.87" y1="128.44" x2="-170.8" y2="128.44" gradientTransform="translate(6394.78 -1633.19) rotate(22.53) scale(30.85)" gradientUnits="userSpaceOnUse"><stop offset="0" stop-color="#98d5ed"/><stop offset="0.7" stop-color="#57c1ea"/><stop offset="1" stop-color="#57c1ea"/></linearGradient><linearGradient id="linear-gradient-17" x1="-196.31" y1="136.64" x2="-196.23" y2="136.64" gradientTransform="translate(3031.35 -5071.3) rotate(-24.4) scale(24.72)" gradientUnits="userSpaceOnUse"><stop offset="0" stop-color="#7bcceb"/><stop offset="1" stop-color="#45b7e9"/></linearGradient><linearGradient id="linear-gradient-18" x1="-177.57" y1="103.43" x2="-177.49" y2="103.43" gradientTransform="translate(12535.29 21499.15) rotate(90) scale(121.03)" gradientUnits="userSpaceOnUse"><stop offset="0" stop-color="#2da6de"/><stop offset="1" stop-color="#3eaae0" stop-opacity="0"/></linearGradient><linearGradient id="linear-gradient-19" x1="0.63" y1="-634.42" x2="7.04" y2="-634.42" gradientTransform="matrix(1, 0, 0, -1, 0.33, -621.91)" gradientUnits="userSpaceOnUse"><stop offset="0" stop-color="#165196"/><stop offset="1" stop-color="#1982c5"/></linearGradient><linearGradient id="linear-gradient-20" x1="-0.33" y1="-634.39" x2="6.03" y2="-634.39" gradientTransform="matrix(1, 0, 0, -1, 0.33, -621.91)" gradientUnits="userSpaceOnUse"><stop offset="0" stop-color="#269fda" stop-opacity="0.25"/><stop offset="1" stop-color="#269fda"/></linearGradient></defs><title>asp-net</title><g id="Layer_2" data-name="Layer 2"><g id="Layer_2-2" data-name="Layer 2"><polyline class="cls-1" points="9.14 3.34 9.14 0.5 75.35 0.5 75.35 24.95 9.14 24.95 9.14 22.41"/><text class="cls-2" transform="translate(26.22 16.58)">ASP.NET</text><g id="Layer_1-2" data-name="Layer 1-2"><path class="cls-3" d="M18.69,8A3,3,0,0,0,16,10.28c-.74,2.33-1.62,4.8-1.6,4.79-.82-2.46-1.11-6.91-3.5-6.91H6.17C4.11,8.14,1.3,12,0,16.89l2.37,0a3.06,3.06,0,0,0,2.87-2.37c.32-1,.59-1.93.83-2.66.57-.8,1.71-2.06,1.71-2.06.81,2.48,1.11,6.88,3.48,6.88H15.9c1.77-.22,3.58-3.45,6.52-8.69Zm-9.07.18h0Z"/><path class="cls-4" d="M7.78,9.76c.81,2.47,1.11,6.88,3.48,6.88a2.51,2.51,0,0,0,.55-.06c-2.14-.48-2.39-4.86-3.7-7.12Z"/><path class="cls-5" d="M8.1,9.47c1.3,2.26,1.56,6.62,3.71,7.12a2.83,2.83,0,0,0,.5-.13c-1.93-1-2.46-5.19-4-7.22A3.23,3.23,0,0,1,8.1,9.47Z"/><path class="cls-6" d="M10,8.12a3.29,3.29,0,0,0-.54.05A3.92,3.92,0,0,0,8,8.78a3.08,3.08,0,0,1,.38.43,5.26,5.26,0,0,1,1.49-.89,2.64,2.64,0,0,1,.55-.15A2,2,0,0,0,10,8.12Z"/><path class="cls-7" d="M13.83,15.59c.19-.17.39-.33.59-.52-.82-2.46-1.11-6.91-3.5-6.91a3,3,0,0,0-.52,0C12.58,8.72,12.86,13.43,13.83,15.59Z"/><path class="cls-8" d="M13.78,16.1c-.09-.09-.18-.2-.27-.28a5.28,5.28,0,0,1-1.2.63,1.76,1.76,0,0,0,.44.15,1.58,1.58,0,0,0,.38,0,2.57,2.57,0,0,0,1.13-.19A4.29,4.29,0,0,1,13.78,16.1Z"/><path class="cls-9" d="M9.85,8.32c1.94,1,2.1,5.62,3.66,7.49a3.33,3.33,0,0,0,.32-.24c-1-2.16-1.25-6.87-3.42-7.4A2.73,2.73,0,0,0,9.85,8.32Z"/><path class="cls-10" d="M8.36,9.24c1.49,2,2,6.27,4,7.22a4.94,4.94,0,0,0,1.2-.64C12,13.94,11.79,9.34,9.85,8.32A5.22,5.22,0,0,0,8.36,9.24Z"/><path class="cls-11" d="M6.84,9.7a22.25,22.25,0,0,0-.76,2.12,14,14,0,0,1,1.7-2.06c-.08-.23-.16-.43-.25-.67C7.3,9.28,7.06,9.49,6.84,9.7Z"/><path class="cls-12" d="M7.74,8.94c-.07,0-.13.11-.2.15.09.22.17.43.25.67.1-.11.21-.2.31-.3A3.71,3.71,0,0,0,7.74,8.94Z"/><path class="cls-13" d="M8,8.78l-.25.16a3.64,3.64,0,0,1,.35.52l.27-.24A2.61,2.61,0,0,0,8,8.78Z"/><path class="cls-14" d="M21.23,7.93c-1.1,4.24-3.4,7.64-5.31,8.5l-.11.05h-.32a.84.84,0,0,0,.27,0c1.82,0,3.67-3.26,6.71-8.71H21.21Z"/><path class="cls-15" d="M6.84,9.7a6.62,6.62,0,0,1,.7-.59,2.55,2.55,0,0,0-.17-.33A4.4,4.4,0,0,0,6.84,9.7ZM7,8.32a2.16,2.16,0,0,1,.37.43,1.27,1.27,0,0,0,.1-.12A2.19,2.19,0,0,0,7,8.32H7"/><path class="cls-16" d="M1.35,14.8c1.87-3.6,2.76-5.89,4.33-6.51C4.07,8.92,2.24,11.31,1.35,14.8Z"/><path class="cls-17" d="M7.47,8.66l-.1.12a1.71,1.71,0,0,1,.17.33A1.56,1.56,0,0,1,7.74,9a2.44,2.44,0,0,0-.27-.29"/><path class="cls-18" d="M2.21,16.85H2.06a3.09,3.09,0,0,0,3.19-2.38c.33-1,.6-1.93.83-2.65a40.59,40.59,0,0,0-2.4,3.94A1.93,1.93,0,0,1,2.21,16.85Z"/><path class="cls-19" d="M2.21,16.85a2,2,0,0,0,1.48-1.09,39.33,39.33,0,0,1,2.39-3.94A22.25,22.25,0,0,1,6.84,9.7,23.85,23.85,0,0,0,2.21,16.85Z"/><path class="cls-20" d="M1.35,14.8C1,15.45.65,16.14.24,16.86H1C1.05,16.18,1.19,15.48,1.35,14.8Z"/><path class="cls-21" d="M16.94,10.28c-.36,1.15-.65,2.1-.91,2.89a31.6,31.6,0,0,0,2.9-5.05A3,3,0,0,0,16.94,10.28Z"/><path class="cls-22" d="M16.06,16.36s-.1,0-.14.07c1.92-.86,4.21-4.26,5.31-8.5H21C18.5,12.44,17.68,15.47,16.06,16.36Z"/><path class="cls-23" d="M14.82,16a9.09,9.09,0,0,0,1.23-2.81,13.25,13.25,0,0,1-1.62,1.89A5,5,0,0,0,14.82,16Z"/><path class="cls-8" d="M14.82,16a2,2,0,0,1-.46.4s-.08,0-.12.06a1.7,1.7,0,0,0,.59.19h.63a1.27,1.27,0,0,1-.64-.61Z"/><path class="cls-24" d="M11.27,16.64a2.51,2.51,0,0,0,.55-.06,3.18,3.18,0,0,0,.51-.13,2,2,0,0,0,.83.19Zm1.87,0a2.67,2.67,0,0,0,1.12-.19,1.7,1.7,0,0,0,.59.19H13.14Z"/><path class="cls-25" d="M15,16.64h.4a.66.66,0,0,0,.28,0H15Z"/><path class="cls-26" d="M14.42,15.07c-.19.18-.39.35-.59.52l-.32.23q.13.16.27.3a2,2,0,0,0,.46.34s.07,0,.12-.06a1.6,1.6,0,0,0,.46-.4A5.43,5.43,0,0,1,14.42,15.07Z"/><path class="cls-27" d="M20.31,7.93H19l-.09.18a31.9,31.9,0,0,1-2.89,5A8.66,8.66,0,0,1,14.79,16a1.23,1.23,0,0,0,.64.61h.31l.11,0s.1,0,.14-.07c1.61-.89,2.42-3.92,5-8.43h-.66Z"/><path class="cls-28" d="M7.47,8.66A2.44,2.44,0,0,1,7.74,9,2.26,2.26,0,0,1,8,8.79a3,3,0,0,0-.34-.28,1.39,1.39,0,0,0-.19.15"/><path class="cls-29" d="M6.35,8.14h.13a1.94,1.94,0,0,1,1.14.37A2,2,0,0,1,9,8.14H6.35"/><path class="cls-30" d="M9,8.12a2.1,2.1,0,0,0-1.36.38A3,3,0,0,1,8,8.78a3.87,3.87,0,0,1,1.45-.61A4.63,4.63,0,0,1,10,8.11H9Z"/><path class="cls-31" d="M16,13.17c.26-.79.55-1.73.91-2.89a2.94,2.94,0,0,1,2-2.16L19,8a3,3,0,0,0-3,2.33c-.73,2.31-1.16,3.82-1.59,4.75A14.15,14.15,0,0,0,16,13.17Z"/><path class="cls-32" d="M1,16.88H2.21a36.12,36.12,0,0,1,2.25-4.15,16.7,16.7,0,0,1,2.39-3,4,4,0,0,1,.54-.92,1.09,1.09,0,0,0-.52-.52,1.32,1.32,0,0,0-1.13,0A3.37,3.37,0,0,0,4.18,9.62,43.87,43.87,0,0,0,1.37,14.8,16.27,16.27,0,0,0,1,16.88Z"/><path class="cls-33" d="M0,16.86H.25c.4-.71.77-1.41,1.12-2.06a13.4,13.4,0,0,1,1.78-4.15A5,5,0,0,1,6.36,8.12C5.68,8,4.83,8.32,3.55,9.7A14.44,14.44,0,0,0,1.3,13.27,19,19,0,0,0,0,16.86Z"/><path class="cls-34" d="M7.47,8.66a2,2,0,0,0-1.12-.54,1.8,1.8,0,0,1,.86.12,1.18,1.18,0,0,1,.43.26Z"/></g></g></g></svg>