<svg xmlns="http://www.w3.org/2000/svg" xmlns:xlink="http://www.w3.org/1999/xlink" viewBox="0 0 75.39 26.5"><defs><style>.cls-1{stroke:#919191;stroke-miterlimit:10;fill:url(#linear-gradient);}.cls-2{fill:none;}.cls-3{isolation:isolate;font-size:8.67px;font-family:Poppins-Medium, Poppins;font-weight:500;}.cls-4{fill:#2ac64b;}.cls-5{fill:#008a5a;}.cls-6{fill:#009550;}.cls-7{fill:#00983e;}.cls-8{fill:#009a37;}.cls-9{fill:#00863f;}.cls-10{fill:#06cbf6;}.cls-11{fill:url(#linear-gradient-2);}.cls-12{fill:#666565;}.cls-13{fill:url(#linear-gradient-3);}.cls-14{fill:url(#linear-gradient-4);}.cls-15{fill:url(#linear-gradient-5);}.cls-16{fill:#97cc1a;}.cls-17{fill:url(#linear-gradient-6);}.cls-18{fill:url(#linear-gradient-7);}.cls-19{fill:url(#linear-gradient-8);}.cls-20{fill:url(#linear-gradient-9);}.cls-21{fill:url(#linear-gradient-10);}.cls-22{fill:url(#linear-gradient-11);}</style><linearGradient id="linear-gradient" x1="361.72" y1="-867.39" x2="430.98" y2="-867.39" gradientTransform="matrix(1, 0, 0, -1, -356, -854.14)" gradientUnits="userSpaceOnUse"><stop offset="0" stop-color="#fff"/><stop offset="1" stop-color="#d1d3d4"/></linearGradient><linearGradient id="linear-gradient-2" x1="-43336.13" y1="-22729.99" x2="-43308.55" y2="-22729.15" gradientTransform="translate(10967.21 5756.86) scale(0.25)" gradientUnits="userSpaceOnUse"><stop offset="0" stop-color="#0288f7"/><stop offset="1" stop-color="#2ee2bd"/></linearGradient><linearGradient id="linear-gradient-3" x1="-43334.02" y1="-22689.34" x2="-43340.8" y2="-22706.11" gradientTransform="translate(10967.21 5756.86) scale(0.25)" gradientUnits="userSpaceOnUse"><stop offset="0" stop-color="#cb1918"/><stop offset="0.39" stop-color="#a2183d"/><stop offset="0.75" stop-color="#902869"/><stop offset="1" stop-color="#73358a"/></linearGradient><linearGradient id="linear-gradient-4" x1="-43337.45" y1="-22687.95" x2="-43344.23" y2="-22704.73" xlink:href="#linear-gradient-3"/><linearGradient id="linear-gradient-5" x1="-43328.03" y1="-22691.76" x2="-43334.81" y2="-22708.54" xlink:href="#linear-gradient-3"/><linearGradient id="linear-gradient-6" x1="-43314.09" y1="-22701.26" x2="-43323.93" y2="-22690.51" gradientTransform="translate(10967.21 5756.86) scale(0.25)" gradientUnits="userSpaceOnUse"><stop offset="0" stop-color="#add816"/><stop offset="1" stop-color="#dbd704"/></linearGradient><linearGradient id="linear-gradient-7" x1="-43321.53" y1="-22680.6" x2="-43329.91" y2="-22694.73" gradientTransform="translate(10967.21 5756.86) scale(0.25)" gradientUnits="userSpaceOnUse"><stop offset="0" stop-color="#e1282b"/><stop offset="0.39" stop-color="#e3402a"/><stop offset="0.7" stop-color="#e76226"/><stop offset="1" stop-color="#f19a0a"/></linearGradient><linearGradient id="linear-gradient-8" x1="-43320.99" y1="-22680.92" x2="-43329.37" y2="-22695.05" xlink:href="#linear-gradient-7"/><linearGradient id="linear-gradient-9" x1="-43322.42" y1="-22680.07" x2="-43330.8" y2="-22694.2" xlink:href="#linear-gradient-7"/><linearGradient id="linear-gradient-10" x1="-43327.04" y1="-22677.33" x2="-43335.42" y2="-22691.46" xlink:href="#linear-gradient-7"/><linearGradient id="linear-gradient-11" x1="-43328.59" y1="-22676.41" x2="-43336.97" y2="-22690.54" xlink:href="#linear-gradient-7"/></defs><title>corel</title><g id="Layer_2" data-name="Layer 2"><g id="Layer_2-2" data-name="Layer 2"><polyline class="cls-1" points="5.72 3.46 5.72 0.5 74.89 0.5 74.89 26 5.72 26 5.72 23.35"/><rect class="cls-2" x="17.86" y="8.97" width="47.64" height="8.47"/><text class="cls-3" transform="translate(18.79 16.3)">CorelDraw</text><path class="cls-4" d="M.57,10.68l-.5-.21C0,10.26,0,10,0,9.82A3,3,0,0,1,0,9.3l.49.09a4.94,4.94,0,0,0,0,.77A4.6,4.6,0,0,0,.57,10.68Zm1.91,1.13A10.7,10.7,0,0,0,1.13,11,6.63,6.63,0,0,1,1,9.5c.37.08.81.18,1.29.32a9.22,9.22,0,0,0,.15,2Zm5,.26a.88.88,0,0,1,0,.16,7.34,7.34,0,0,0-1.93,1.46c-.19.2-.37.41-.53.61-.18-.23-.37-.46-.58-.69l-.27-.31a22.58,22.58,0,0,1-.27-3A15.76,15.76,0,0,1,7.5,12.07Z"/><path class="cls-5" d="M.71,8.39a4.22,4.22,0,0,0-.2,1L0,9.3A3,3,0,0,1,.08,9,6.42,6.42,0,0,1,.71,8.39Z"/><path class="cls-6" d="M3,7.08a6.29,6.29,0,0,0-.71,2.67v.07c-.48-.14-.92-.24-1.28-.32V9.45a4,4,0,0,1,.49-1.66A7.48,7.48,0,0,1,3,7.08Z"/><path class="cls-7" d="M7.5,12.07a15.76,15.76,0,0,0-3.6-1.76,10.56,10.56,0,0,1,.3-3,.19.19,0,0,1,0-.07A12.49,12.49,0,0,0,7.55,8.65a16.46,16.46,0,0,1,0,3.42Z"/><path class="cls-8" d="M11.5,9.82a7.69,7.69,0,0,1-.2,1.43l-.46,0A8.39,8.39,0,0,0,11,10.16a4.4,4.4,0,0,0-.79-2.94l.4.12A3.7,3.7,0,0,1,11.5,9.82Zm-1.19,1.52a8.59,8.59,0,0,0-1.25.27,8.54,8.54,0,0,0,.12-1.86A6.18,6.18,0,0,0,8.31,6.8c.4.06.78.14,1.13.22a4.24,4.24,0,0,1,1,2.43A6.83,6.83,0,0,1,10.31,11.34Z"/><path class="cls-9" d="M7.55,8.65A12.49,12.49,0,0,1,4.22,7.2a4.29,4.29,0,0,1,.16-.47l.54-.07a11.25,11.25,0,0,1,2.17,0,4.05,4.05,0,0,1,.22.62A7.21,7.21,0,0,1,7.55,8.65Z"/><path class="cls-10" d="M2.52,6A4.72,4.72,0,0,0,.71,8.39,6.42,6.42,0,0,0,.08,9,4.68,4.68,0,0,1,2.52,6Zm.79.61c-.09.14-.18.28-.27.45a7.48,7.48,0,0,0-1.5.71A5,5,0,0,1,2.83,6.3Z"/><path class="cls-11" d="M10.61,7.34l-.4-.12A4.57,4.57,0,0,0,9,6,4.36,4.36,0,0,1,10.61,7.34ZM9.44,7c-.35-.08-.73-.16-1.13-.22A3.59,3.59,0,0,0,6.64,5.33,5.16,5.16,0,0,1,9.44,7ZM7.09,6.65a11.25,11.25,0,0,0-2.17,0l-.54.07a2.2,2.2,0,0,1,1.36-1.4h0A2.15,2.15,0,0,1,7.09,6.65ZM4.87,5.33a3.55,3.55,0,0,0-1.56,1.3L2.83,6.3a5,5,0,0,1,2-1Z"/><path class="cls-12" d="M5.75,21.17h.87l.32-1.4H4.57l.32,1.4Z"/><path class="cls-13" d="M2.49,14.91c.16.35.32.66.46.91A11.64,11.64,0,0,0,3.64,17a7.05,7.05,0,0,1,.25-.73c-.18-.41-.36-.85-.53-1.3a18,18,0,0,1-.88-3.13A10.7,10.7,0,0,0,1.13,11a14.93,14.93,0,0,0,1.36,3.95Z"/><path class="cls-14" d="M1.7,14.9l.3.49a17.38,17.38,0,0,0,1.51,2.09,1.74,1.74,0,0,1,.05-.22c-.2-.27-.39-.55-.56-.8s-.58-.9-.94-1.55a12.76,12.76,0,0,1-1.5-4.23l-.49-.21A12.07,12.07,0,0,0,1.7,14.9Z"/><path class="cls-15" d="M4.25,13.85c.06.37.14.74.21,1.11l0,.11A7.08,7.08,0,0,1,5,14.3c-.19-.23-.38-.47-.58-.69l-.27-.3C4.19,13.49,4.22,13.67,4.25,13.85Z"/><path class="cls-16" d="M10.84,11.28a12.36,12.36,0,0,1-1,2.9l.24.25a12.15,12.15,0,0,0,1.24-3.18Zm-1.77.33c-.09.51-.2,1-.34,1.54l.77.72a14.66,14.66,0,0,0,.81-2.53,8.2,8.2,0,0,0-1.24.27Z"/><path class="cls-17" d="M5.55,13.69c-.19.2-.37.41-.53.61a16.87,16.87,0,0,1,1.61,2.44c.13-.53.28-1.12.4-1.72.09-.39.16-.78.23-1.17s.16-1.08.22-1.62A7.18,7.18,0,0,0,5.55,13.69Zm4.27.49-.05.1a22.61,22.61,0,0,1-1.26,2.18c-.36.55-.84,1.19-1.23,1.68l0,.11a18.27,18.27,0,0,0,2.19-2.86c.18-.29.35-.58.5-.87a.41.41,0,0,0,.05-.09l-.24-.25Zm-1.09-1,0,.07A24.53,24.53,0,0,1,7,17.53l.16.36a11.26,11.26,0,0,0,1.38-2.07c.25-.47.58-1.12.9-1.85l0-.1Z"/><path class="cls-18" d="M6.21,19c.37-.39.68-.73,1-1.07L7,17.53A10.54,10.54,0,0,1,6.21,19Z"/><path class="cls-19" d="M6.66,18.93s.28-.27.66-.68a.76.76,0,0,0,0-.11C6.94,18.59,6.68,18.91,6.66,18.93Z"/><path class="cls-20" d="M4.49,15.07c.43,2,1,3.9,1,3.9H6s.3-.95.64-2.23A16.87,16.87,0,0,0,5,14.3,7.08,7.08,0,0,0,4.49,15.07Z"/><path class="cls-21" d="M3.64,17A13.78,13.78,0,0,0,5.3,19a16.73,16.73,0,0,1-1.41-2.72,5.28,5.28,0,0,0-.25.73Z"/><path class="cls-22" d="M3.51,17.48a19.13,19.13,0,0,0,1.34,1.45s-.68-.83-1.29-1.67C3.54,17.33,3.53,17.41,3.51,17.48Z"/></g></g></svg>