<svg xmlns="http://www.w3.org/2000/svg" xmlns:xlink="http://www.w3.org/1999/xlink" viewBox="0 0 76.01 25.71"><defs><style>.cls-1{stroke:#919191;stroke-miterlimit:10;fill:url(#linear-gradient);}.cls-2{isolation:isolate;font-size:8.4px;font-family:Poppins-Medium, Poppins;font-weight:500;}.cls-3{fill:#5ab3d9;}.cls-4{fill:#98c9e2;}.cls-5{fill:#b7d333;}.cls-6{fill:#2072b8;}</style><linearGradient id="linear-gradient" x1="364.7" y1="-940.17" x2="431.58" y2="-940.17" gradientTransform="matrix(1, 0, 0, -1, -356, -927.31)" gradientUnits="userSpaceOnUse"><stop offset="0" stop-color="#fff"/><stop offset="1" stop-color="#d1d3d4"/></linearGradient></defs><title>cosmosdb</title><g id="Layer_2" data-name="Layer 2"><g id="Layer_2-2" data-name="Layer 2"><polyline class="cls-1" points="8.7 3.37 8.7 0.5 75.51 0.5 75.51 25.21 8.7 25.21 8.7 22.64"/><text class="cls-2" transform="translate(21.23 16.75)">Cosmos DB</text><path class="cls-3" d="M7.91,8.31a4.9,4.9,0,1,1-3.76,5.83A4.87,4.87,0,0,1,7.91,8.31Z"/><path class="cls-4" d="M4.15,14.14a4.53,4.53,0,0,0,1.19,2.27H6.92a1.29,1.29,0,0,0,0-2.57h-.2v-.29a1.3,1.3,0,0,0-1.28-1.29H4.15A3,3,0,0,0,4.15,14.14Z"/><path class="cls-4" d="M7.91,11.27a1.35,1.35,0,0,0,1.38,1.39h4.55a.75.75,0,0,0-.1-.5A4.82,4.82,0,0,0,11.37,8.9h-.6a.89.89,0,0,0-.89.89V10H9.29A1.33,1.33,0,0,0,7.91,11.27Z"/><path class="cls-4" d="M13.84,13.64H11.17a1.1,1.1,0,0,0-1.09,1.09.75.75,0,0,0,.1.5,1.17,1.17,0,0,0-.79,1.08,1.09,1.09,0,0,0,1.09,1.09h.69A4.69,4.69,0,0,0,13.84,13.64Z"/><path class="cls-5" d="M5,7.62a2,2,0,0,1-2-2,.42.42,0,0,0-.39-.4c-.2,0-.3.2-.3.4a2,2,0,0,1-2,2A.42.42,0,0,0,0,8a.43.43,0,0,0,.4.4,2,2,0,0,1,2,2,.43.43,0,0,0,.4.4.43.43,0,0,0,.39-.4,2,2,0,0,1,2-2A.42.42,0,0,0,5.53,8,.62.62,0,0,0,5,7.62Z"/><path class="cls-6" d="M16.21,17.6a1.11,1.11,0,0,1-1.09-1.09.22.22,0,0,0-.2-.2.21.21,0,0,0-.19.2,1.11,1.11,0,0,1-1.09,1.09.2.2,0,1,0,0,.39,1.11,1.11,0,0,1,1.09,1.09.21.21,0,0,0,.19.2.22.22,0,0,0,.2-.2A1.11,1.11,0,0,1,16.21,18a.2.2,0,1,0,0-.39Z"/><path class="cls-6" d="M16.9,10.68c-.3-.89-1.38-1.29-3.26-1.29a8.88,8.88,0,0,0-1.58.1,2.91,2.91,0,0,1,.69.79h.79c1.58,0,2.37.4,2.47.7.2.89-2.08,2.86-6.52,4.25a19.51,19.51,0,0,1-5.34.89c-1.58,0-2.37-.4-2.47-.7-.2-.49.69-1.48,2.27-2.37A4.26,4.26,0,0,1,4.15,12C2,13.05.49,14.53.89,15.72c.3.89,1.38,1.28,3.26,1.28a21.86,21.86,0,0,0,5.63-1A18.82,18.82,0,0,0,15,13.55C16.5,12.56,17.2,11.47,16.9,10.68Z"/></g></g></svg>