<svg xmlns="http://www.w3.org/2000/svg" xmlns:xlink="http://www.w3.org/1999/xlink" viewBox="0 0 75.41 25.51"><defs><style>.cls-1{stroke:#919191;stroke-miterlimit:10;fill:url(#linear-gradient);}.cls-2{fill:#1572b6;}.cls-3{fill:#33a9dc;}.cls-4{fill:#fff;}.cls-5{fill:#ebebeb;}.cls-6{fill:none;}.cls-7{isolation:isolate;font-size:8.33px;font-family:Poppins-Medium, Poppins;font-weight:500;}</style><linearGradient id="linear-gradient" x1="362.86" y1="-1028.05" x2="430.91" y2="-1028.05" gradientTransform="matrix(1, 0, 0, -1, -356, -1015.3)" gradientUnits="userSpaceOnUse"><stop offset="0" stop-color="#fff"/><stop offset="1" stop-color="#d1d3d4"/></linearGradient></defs><title>css</title><g id="Layer_2" data-name="Layer 2"><g id="Layer_2-2" data-name="Layer 2"><polyline class="cls-1" points="6.86 3.34 6.86 0.5 74.91 0.5 74.91 25.01 6.86 25.01 6.86 22.46"/><path id="Shape" class="cls-2" d="M1.27,19.23,0,4.91H14L12.75,19.23,7.06,20.8Z"/><path id="Shape-2" data-name="Shape" class="cls-3" d="M7.06,19.52l4.61-1.27L12.75,6.09H7.06Z"/><g id="Group"><path id="Shape-3" data-name="Shape" class="cls-4" d="M6.86,11.29H9.22l.19-1.77H7V7.76h4.41v.49L11,13.05H7.06V11.29Z"/><path id="Shape-4" data-name="Shape" class="cls-5" d="M7.06,15.8h0l-2-.49L5,13.93H3.24l.29,2.75,3.63,1h0V15.8Z"/><path id="Shape-5" data-name="Shape" class="cls-4" d="M9.22,13,9,15.31l-2,.49v1.86l3.63-1v-.3L11,13Z"/><path id="Shape-6" data-name="Shape" class="cls-5" d="M7.06,7.76V9.52H2.84V9.13l-.09-.88V7.76Z"/><path id="Shape-7" data-name="Shape" class="cls-5" d="M7.06,11.29v1.76h-2v-.39L5,11.78v-.49Z"/></g><rect class="cls-6" x="35.4" y="8.64" width="16.87" height="7.55"/><text class="cls-7" transform="translate(35.37 15.75)">CSS</text></g></g></svg>