<svg xmlns="http://www.w3.org/2000/svg" xmlns:xlink="http://www.w3.org/1999/xlink" viewBox="0 0 75.89 26.2"><defs><style>.cls-1{stroke:#919191;stroke-miterlimit:10;fill:url(#linear-gradient);}.cls-2{fill:#0acf83;}.cls-3{fill:#a259ff;}.cls-4{fill:#f24e1e;}.cls-5{fill:#ff7262;}.cls-6{fill:#1abcfe;}.cls-7{fill:none;}.cls-8{isolation:isolate;font-size:8.57px;font-family:Poppins-Medium, Poppins;font-weight:500;}</style><linearGradient id="linear-gradient" x1="361.44" y1="-1246.62" x2="431.39" y2="-1246.62" gradientTransform="matrix(1, 0, 0, -1, -356, -1233.52)" gradientUnits="userSpaceOnUse"><stop offset="0" stop-color="#fff"/><stop offset="1" stop-color="#d1d3d4"/></linearGradient></defs><title>figma</title><g id="Layer_2" data-name="Layer 2"><g id="Layer_2-2" data-name="Layer 2"><polyline class="cls-1" points="5.44 3.42 5.44 0.5 75.39 0.5 75.39 25.7 5.44 25.7 5.44 23.08"/><path class="cls-2" d="M2.72,21.47a2.71,2.71,0,0,0,2.72-2.73V16H2.72a2.73,2.73,0,0,0,0,5.45Z"/><path class="cls-3" d="M0,13.3a2.71,2.71,0,0,1,2.72-2.72H5.44V16H2.72A2.71,2.71,0,0,1,0,13.3Z"/><path class="cls-4" d="M0,7.86A2.71,2.71,0,0,1,2.72,5.14H5.44v5.44H2.72A2.71,2.71,0,0,1,0,7.86Z"/><path class="cls-5" d="M5.44,5.14H8.16a2.72,2.72,0,1,1,0,5.44H5.44Z"/><path class="cls-6" d="M10.89,13.3a2.73,2.73,0,1,1-2.73-2.72A2.71,2.71,0,0,1,10.89,13.3Z"/><rect class="cls-7" x="29.53" y="8.36" width="28.02" height="8.87"/><text class="cls-8" transform="translate(29.57 15.62)">Figma</text></g></g></svg>