<svg xmlns="http://www.w3.org/2000/svg" xmlns:xlink="http://www.w3.org/1999/xlink" viewBox="0 0 75.9 25.71"><defs><style>.cls-1{stroke:#919191;stroke-miterlimit:10;fill:url(#linear-gradient);}.cls-2{fill:#e44d26;}.cls-3{fill:#f16529;}.cls-4{fill:#ebebeb;}.cls-5{fill:#fff;}.cls-6{fill:none;}.cls-7{isolation:isolate;font-size:8.4px;font-family:Poppins-Medium, Poppins;font-weight:500;}</style><linearGradient id="linear-gradient" x1="362.82" y1="-1327.07" x2="431.4" y2="-1327.07" gradientTransform="matrix(1, 0, 0, -1, -356, -1314.22)" gradientUnits="userSpaceOnUse"><stop offset="0" stop-color="#fff"/><stop offset="1" stop-color="#d1d3d4"/></linearGradient></defs><title>html</title><g id="Layer_2" data-name="Layer 2"><g id="Layer_2-2" data-name="Layer 2"><polyline class="cls-1" points="6.82 3.37 6.82 0.5 75.4 0.5 75.4 25.21 6.82 25.21 6.82 22.64"/><polygon class="cls-2" points="1.19 19.08 0 5.14 13.64 5.14 12.45 19.08 6.82 20.66 1.19 19.08"/><polygon class="cls-3" points="6.82 19.48 11.37 18.19 12.45 6.23 6.82 6.23 6.82 19.48"/><polygon class="cls-4" points="6.82 11.47 4.55 11.47 4.35 9.69 6.82 9.69 6.82 8.01 6.82 8.01 2.47 8.01 2.57 8.41 2.96 13.15 6.82 13.15 6.82 11.47"/><polygon class="cls-4" points="6.82 15.92 6.82 15.92 4.94 15.42 4.74 14.04 3.85 14.04 3.06 14.04 3.26 16.71 6.82 17.7 6.82 17.7 6.82 15.92"/><polygon class="cls-5" points="6.82 11.47 6.82 13.15 8.89 13.15 8.7 15.42 6.82 15.92 6.82 17.7 10.38 16.71 10.38 16.41 10.77 11.87 10.77 11.47 10.38 11.47 6.82 11.47"/><polygon class="cls-5" points="6.82 8.01 6.82 9 6.82 9.69 6.82 9.69 10.97 9.69 10.97 9.69 10.97 9.69 10.97 9.29 11.07 8.41 11.17 8.01 6.82 8.01"/><rect class="cls-6" x="33.01" y="8.41" width="21.94" height="8.5"/><text class="cls-7" transform="translate(32.99 15.55)">HTML</text></g></g></svg>