<svg xmlns="http://www.w3.org/2000/svg" xmlns:xlink="http://www.w3.org/1999/xlink" viewBox="0 0 76.01 25.71"><defs><style>.cls-1{stroke:#919191;stroke-miterlimit:10;fill:url(#linear-gradient);}.cls-2{fill:#300;}.cls-3{fill:#ff9a00;}.cls-4{fill:none;}.cls-5{isolation:isolate;font-size:8.4px;font-family:Poppins-Medium, Poppins;font-weight:500;}</style><linearGradient id="linear-gradient" x1="364.5" y1="-1399.45" x2="431.59" y2="-1399.45" gradientTransform="matrix(1, 0, 0, -1, -356, -1386.6)" gradientUnits="userSpaceOnUse"><stop offset="0" stop-color="#fff"/><stop offset="1" stop-color="#d1d3d4"/></linearGradient></defs><title>illustrator</title><g id="Layer_2" data-name="Layer 2"><g id="Layer_2-2" data-name="Layer 2"><polyline class="cls-1" points="8.5 3.37 8.5 0.5 75.51 0.5 75.51 25.21 8.5 25.21 8.5 22.64"/><g id="Layer_2-3" data-name="Layer 2"><g id="Surfaces"><g id="Drawing_Surface" data-name="Drawing Surface"><g id="Outline_no_shadow" data-name="Outline no shadow"><path class="cls-2" d="M3.06,4.55H14.13A3.09,3.09,0,0,1,17.2,7.62V18.19a3.08,3.08,0,0,1-3.07,3.06H3.06A3.07,3.07,0,0,1,0,18.19V7.52A3.06,3.06,0,0,1,3.06,4.55Z"/></g></g></g><g id="Outlined_Mnemonics_Logos" data-name="Outlined Mnemonics Logos"><g id="Ai"><path class="cls-3" d="M8.3,14.53H5.73l-.49,1.68a.1.1,0,0,1-.1.1H3.66c-.1,0-.1,0-.1-.1L5.93,9.59c0-.1,0-.2.1-.2V8.9a.1.1,0,0,1,.1-.1H7.91c.1,0,.1,0,.1.1l2.56,7.31c0,.1,0,.1-.09.1H9c-.1,0-.1,0-.1-.1ZM6.13,13.05H7.91c0-.2-.1-.3-.2-.49s-.1-.4-.2-.6a5.56,5.56,0,0,1-.2-.69c-.1-.29-.1-.39-.19-.59s-.1-.4-.2-.59h0c-.1.29-.1.59-.2.89s-.2.69-.3,1.08a9.37,9.37,0,0,1-.29,1Z"/><path class="cls-3" d="M12.16,10a.71.71,0,0,1-.6-.3A.61.61,0,0,1,11.37,9a.69.69,0,0,1,.29-.59.86.86,0,0,1,.59-.3.91.91,0,0,1,.7.3.73.73,0,0,1,.19.59,1,1,0,0,1-.29.69A1.08,1.08,0,0,1,12.16,10Zm-.79,6.22V10.78c0-.1,0-.1.09-.1h1.39c.1,0,.1,0,.1.1v5.43c0,.1,0,.1-.1.1H11.46C11.37,16.31,11.37,16.21,11.37,16.21Z"/></g></g></g><rect class="cls-4" x="25" y="8.7" width="40.72" height="8.01"/><text class="cls-5" transform="translate(25.16 15.8)">Illustrator</text></g></g></svg>