<svg xmlns="http://www.w3.org/2000/svg" xmlns:xlink="http://www.w3.org/1999/xlink" viewBox="0 0 75.51 25.68"><defs><style>.cls-1{stroke:#919191;stroke-miterlimit:10;fill:url(#linear-gradient);}.cls-2{fill:none;}.cls-3{isolation:isolate;font-size:8.39px;font-family:Poppins-Medium, Poppins;font-weight:500;}.cls-4{fill-rule:evenodd;}</style><linearGradient id="linear-gradient" x1="364.19" y1="-1553.07" x2="431.01" y2="-1553.07" gradientTransform="matrix(1, 0, 0, -1, -356, -1540.23)" gradientUnits="userSpaceOnUse"><stop offset="0" stop-color="#fff"/><stop offset="1" stop-color="#d1d3d4"/></linearGradient></defs><title>iot</title><g id="Layer_2" data-name="Layer 2"><g id="Layer_2-2" data-name="Layer 2"><polyline class="cls-1" points="8.19 3.36 8.19 0.5 75.01 0.5 75.01 25.18 8.19 25.18 8.19 22.61"/><rect class="cls-2" x="39.38" y="8.1" width="12.34" height="8.39"/><text class="cls-3" transform="translate(39.4 15.24)">IoT</text><path class="cls-4" d="M14.61,5.34a2.75,2.75,0,0,1,.79,2,2.7,2.7,0,0,1-2.77,2.76,3.47,3.47,0,0,1-1.08-.19l-.3.49A3.23,3.23,0,0,1,12.73,13a3,3,0,0,1-1.08,2.37l.29.3a2.36,2.36,0,0,1,1.48-.39,2.68,2.68,0,0,1,2.77,2.76,2.7,2.7,0,0,1-2.77,2.76,2.71,2.71,0,0,1-2-.79,2.75,2.75,0,0,1-.79-2,2.8,2.8,0,0,1,.79-2h0l-.3-.29a3.35,3.35,0,0,1-1.67.49,3.28,3.28,0,0,1-2.77-1.48l-1.58.79a2.56,2.56,0,0,1,.4,1.48,2.8,2.8,0,0,1-.79,2,2.8,2.8,0,0,1-2,.79,2.75,2.75,0,0,1-2-.79,2.8,2.8,0,0,1-.79-2,2.75,2.75,0,0,1,.79-2,2.71,2.71,0,0,1,2-.79,2.75,2.75,0,0,1,2,.79h0l1.77-.89A5.46,5.46,0,0,1,6.32,13a3.25,3.25,0,0,1,.49-1.67l-1.09-.79-.09.1a2.8,2.8,0,0,1-2,.79A2.7,2.7,0,0,1,.89,8.69a2.71,2.71,0,0,1,.79-2,2.49,2.49,0,0,1,1.87-.79,2.93,2.93,0,0,1,2,.79,2.75,2.75,0,0,1,.79,2,2.22,2.22,0,0,1-.4,1.38L7,10.86a3.69,3.69,0,0,1,2.47-1,2.83,2.83,0,0,1,1.28.29l.29-.49-.29-.3a2.71,2.71,0,0,1-.79-2,2.7,2.7,0,0,1,2.76-2.76,2.45,2.45,0,0,1,1.88.69ZM9.87,13.92a.37.37,0,0,1,.1.3,1,1,0,0,1-.1.3,1.08,1.08,0,0,1-.3.09,1.11,1.11,0,0,1-.29-.09.37.37,0,0,1-.1-.3,1,1,0,0,1,.1-.3.36.36,0,0,1,.29-.1c.1-.09.2,0,.3.1Zm.59-2.07a2.42,2.42,0,0,1,.89.59.35.35,0,0,1,.1.2c0,.1,0,.1-.1.2h0a.35.35,0,0,1-.2.1c-.1,0-.1,0-.19-.1h0a3,3,0,0,0-.7-.5,1.93,1.93,0,0,0-.69-.19,1,1,0,0,0-.69.19,3.23,3.23,0,0,0-.69.5h0a.14.14,0,0,1-.2,0c-.09,0-.09,0-.09-.1h0a.14.14,0,0,1,0-.2c0-.1,0-.1.09-.2a5.47,5.47,0,0,1,.89-.59,2.92,2.92,0,0,1,.89-.2c.1.1.4.1.69.3Zm-.39.89a2.88,2.88,0,0,1,.49.29h0l.1.1v.2h0l-.1.1h-.2a.73.73,0,0,0-.39-.2c-.1,0-.3-.1-.4-.1a.59.59,0,0,0-.39.1c-.1.1-.3.1-.4.2a.13.13,0,0,1-.19,0c-.1,0-.1,0-.2-.1a.14.14,0,0,1,0-.2h0c0-.1,0-.1.1-.1s.29-.19.49-.29a1.25,1.25,0,0,1,.59-.1.75.75,0,0,1,.5.1ZM2.57,8.4h.19V8.1a.84.84,0,0,1,.3-.59h0a.84.84,0,0,1,.59-.3.83.83,0,0,1,.59.3h0a.84.84,0,0,1,.3.59v.3h0s.1,0,.1.09V9.88a.1.1,0,0,1-.1.1h-2a.1.1,0,0,1-.1-.1l.1-1.48Zm.49,0h1V8.1a.7.7,0,0,0-.2-.39h0a.52.52,0,0,0-.4-.2.77.77,0,0,0-.39.2.48.48,0,0,0-.2.39l.2.3Zm-.2,7.3L1.38,17.18l.4.2L3,16.19l1.19,1.19.39-.2L2.86,15.7ZM1.78,17.48h0l1.08-1.09L4,17.48H4v1.08H1.78V17.48Zm1,.39-.19.3h.49l-.1-.4c.1,0,.1-.1.1-.19a.32.32,0,0,0-.3-.3.31.31,0,0,0-.29.3l.29.29Zm11.45,0h0a.8.8,0,0,0-.29.2l-.2-.2c.1-.1.1-.1.2-.1s.1-.1.19-.1h.1a1.59,1.59,0,0,0-.39-.39,1.25,1.25,0,0,0-.59-.1.76.76,0,0,0-.5.2c-.2.1-.29.29-.39.59v.1h-.1c-.1,0-.2,0-.2.1s-.1.1-.2.1l-.09.09c-.1.1-.1.2-.1.4a.56.56,0,0,0,.1.39l.09.1.1.1h2.57c.1,0,.2-.1.3-.1a.21.21,0,0,0,.19-.19.6.6,0,0,0,.1-.4.85.85,0,0,0-.1-.49.1.1,0,0,0-.1-.1.7.7,0,0,0-.39-.2q0-.15-.3,0ZM11.75,7.21a.87.87,0,0,1-.1-.49.75.75,0,0,1,.1-.5h0a.64.64,0,0,1,.49-.39.87.87,0,0,1,.49-.1c.2,0,.3.1.5.2a.43.43,0,0,1,.39.39c0,.1.1.2.1.4a.57.57,0,0,1-.1.39l-.39.79-1,.1a.73.73,0,0,0-.2-.39c-.2-.1-.29-.2-.29-.4Zm.59,1.38a.73.73,0,0,0-.1-.39L13.32,8v.4c-.19.59-.88.69-1,.19Zm2.66,8a2.38,2.38,0,1,0,.69,1.68A2,2,0,0,0,15,16.59Zm-.69-11a2.4,2.4,0,0,0-1.68-.69,2.37,2.37,0,0,0,0,4.74A2.4,2.4,0,0,0,14.31,9,2.37,2.37,0,0,0,15,7.31a2.3,2.3,0,0,0-.69-1.68ZM5.23,7a2.4,2.4,0,0,0-1.68-.69,2.37,2.37,0,0,0,0,4.74,2.4,2.4,0,0,0,1.68-.69,2.36,2.36,0,0,0,.69-1.68A2.19,2.19,0,0,0,5.23,7ZM4.54,15.4a2.39,2.39,0,0,0-3.36,0,2.39,2.39,0,0,0,0,3.36,2.39,2.39,0,0,0,3.36,0,2.37,2.37,0,0,0,.69-1.68,2.79,2.79,0,0,0-.69-1.68Z"/></g></g></svg>