<svg xmlns="http://www.w3.org/2000/svg" xmlns:xlink="http://www.w3.org/1999/xlink" viewBox="0 0 76.6 26"><defs><style>.cls-1{stroke:#919191;stroke-miterlimit:10;fill:url(#linear-gradient);}.cls-2{fill:none;}.cls-3{isolation:isolate;font-size:8.5px;font-family:Poppins-Medium, Poppins;font-weight:500;}.cls-4{fill:url(#linear-gradient-2);}.cls-5{fill:url(#linear-gradient-3);}</style><linearGradient id="linear-gradient" x1="8.3" y1="-3114.22" x2="76.18" y2="-3114.22" gradientTransform="matrix(1, 0, 0, -1, 0, -3101.22)" gradientUnits="userSpaceOnUse"><stop offset="0" stop-color="#fff"/><stop offset="1" stop-color="#d1d3d4"/></linearGradient><linearGradient id="linear-gradient-2" x1="-403.45" y1="-1054.68" x2="-403.45" y2="-1054.67" gradientTransform="translate(944672.16 2635050.53) scale(2341.46 2498.44)" gradientUnits="userSpaceOnUse"><stop offset="0"/><stop offset="1" stop-color="#fff"/></linearGradient><linearGradient id="linear-gradient-3" x1="-403.65" y1="-1054.67" x2="-403.65" y2="-1054.68" gradientTransform="translate(833926.51 2636694.25) scale(2065.94 2500)" xlink:href="#linear-gradient-2"/></defs><title>jason</title><g id="Layer_2" data-name="Layer 2"><g id="Layer_1-2" data-name="Layer 1"><polyline class="cls-1" points="8.3 3.4 8.3 0.5 76.1 0.5 76.1 25.5 8.3 25.5 8.3 22.9"/><rect class="cls-2" x="20.2" y="8.8" width="46.7" height="8.3"/><text class="cls-3" transform="translate(32.15 15.98)">JSON</text><path class="cls-4" d="M8.3,17.2c3.7,5,7.3-1.4,7.3-5.3,0-4.6-4.6-7.1-7.3-7.1A8.41,8.41,0,0,0,0,13.1a8.38,8.38,0,0,0,8.3,8.3c-.8-.1-3.6-.7-3.6-7,0-4.3,1.4-6,3.6-5.3a4.29,4.29,0,0,1,2.4,4,4.36,4.36,0,0,1-2.4,4.1Z"/><path class="cls-5" d="M8.3,9.1c-2.4-.8-5.4,1.2-5.4,5.2,0,6.5,4.9,7.1,5.4,7.1a8.41,8.41,0,0,0,8.3-8.3A8.38,8.38,0,0,0,8.3,4.8c1-.1,5.5,1.1,5.5,7.2,0,4-3.3,6.1-5.5,5.2a4.29,4.29,0,0,1-2.4-4A4.36,4.36,0,0,1,8.3,9.1Z"/></g></g></svg>