<svg xmlns="http://www.w3.org/2000/svg" xmlns:xlink="http://www.w3.org/1999/xlink" viewBox="0 0 76.01 25.71"><defs><style>.cls-1{stroke:#919191;stroke-miterlimit:10;fill:url(#linear-gradient);}.cls-2{fill:#f0db4f;}.cls-3{fill:#323330;}.cls-4{fill:none;}.cls-5{isolation:isolate;font-size:8.4px;font-family:Poppins-Medium, Poppins;font-weight:500;}</style><linearGradient id="linear-gradient" x1="364.6" y1="-1480.67" x2="431.58" y2="-1480.67" gradientTransform="matrix(1, 0, 0, -1, -356, -1467.82)" gradientUnits="userSpaceOnUse"><stop offset="0" stop-color="#fff"/><stop offset="1" stop-color="#d1d3d4"/></linearGradient></defs><title>javascrpt</title><g id="Layer_2" data-name="Layer 2"><g id="Layer_2-2" data-name="Layer 2"><polyline class="cls-1" points="8.6 3.37 8.6 0.5 75.51 0.5 75.51 25.21 8.6 25.21 8.6 22.74"/><g id="original"><rect class="cls-2" y="4.55" width="16.7" height="16.7"/><path class="cls-3" d="M15.32,17.3c-.1-.79-.59-1.38-2.08-2-.49-.19-1.08-.39-1.28-.79A.43.43,0,0,1,12,14a.88.88,0,0,1,1.09-.49,1.3,1.3,0,0,1,.69.59,10.4,10.4,0,0,1,1.18-.79,2.42,2.42,0,0,0-.39-.5,2.31,2.31,0,0,0-2-.69.85.85,0,0,0-.49.1,2.43,2.43,0,0,0-1.19.69,2.11,2.11,0,0,0,.4,3.07c1,.69,2.37.89,2.47,1.58s-.6,1.08-1.39,1a1.57,1.57,0,0,1-1.18-.89,5.88,5.88,0,0,1-1.29.69,4.46,4.46,0,0,0,.6.79c1.18,1.18,4.25,1.18,4.74-.69A1.86,1.86,0,0,0,15.32,17.3Zm-6.23-5H7.51v4a8,8,0,0,1-.1,1.88c-.2.49-.79.4-1.08.3s-.4-.3-.6-.6V17.8c-.39.29-.89.49-1.28.79a2.93,2.93,0,0,0,.89,1.08,2.86,2.86,0,0,0,2.27.3,2.49,2.49,0,0,0,1.28-1,4.34,4.34,0,0,0,.3-2.27C9.09,15.13,9.09,13.64,9.09,12.26Z"/></g><rect class="cls-4" x="19.67" y="8.41" width="46.25" height="8.89"/><text class="cls-5" transform="translate(19.66 15.56)">JavaScript</text></g></g></svg>