<svg xmlns="http://www.w3.org/2000/svg" xmlns:xlink="http://www.w3.org/1999/xlink" viewBox="0 0 76 25.78"><defs><style>.cls-1{stroke:#919191;stroke-miterlimit:10;fill:url(#linear-gradient);}.cls-2{fill:#0868ac;}.cls-3{fill:none;}.cls-4{isolation:isolate;font-size:8.43px;font-family:Poppins-Medium, Poppins;font-weight:500;}</style><linearGradient id="linear-gradient" x1="364.4" y1="-1728.34" x2="431.5" y2="-1728.34" gradientTransform="matrix(1, 0, 0, -1, -356, -1715.45)" gradientUnits="userSpaceOnUse"><stop offset="0" stop-color="#fff"/><stop offset="1" stop-color="#d1d3d4"/></linearGradient></defs><title>jquary</title><g id="Layer_2" data-name="Layer 2"><g id="Layer_2-2" data-name="Layer 2"><polyline class="cls-1" points="8.4 3.37 8.4 0.5 75.5 0.5 75.5 25.28 8.4 25.28 8.4 22.7"/><g id="original-wordmark"><path class="cls-2" d="M1.07,8.63a7,7,0,0,0-.2,7.13c0,.1.1.1.1.2a.1.1,0,0,0,.1.1v.1s0,.1.09.1.1.1.1.2a.1.1,0,0,0,.1.1c0,.1.1.1.1.2a.09.09,0,0,0,.1.09c.1.1.1.2.2.3h0a.31.31,0,0,0,.1.2.1.1,0,0,0,.1.1l.2.2.09.1c.1.1.1.2.2.2h0c.1.09.1.19.2.19l.1.1.2.2.1.1c.1.1.2.1.2.2h0l.1.1a.09.09,0,0,1,.09.1c.1,0,.1.1.2.1s.1,0,.1.09.1.1.2.1l.1.1H4c.1,0,.1.1.2.1a.1.1,0,0,1,.1.1c.1.1.19.1.29.2h.1c0,.1.1.1.2.2A.1.1,0,0,1,5,20c.1,0,.1.1.2.1h.1c.1,0,.2.09.3.09h.09c.1,0,.2.1.3.1h.1c.1,0,.2.1.3.1h0c.1,0,.2.1.3.1h.09c.1,0,.2.1.3.1,7.14,1.29,9.22-4.26,9.22-4.26-1.78,2.28-4.86,2.87-7.73,2.18-.1,0-.2-.1-.3-.1H8.2c-.1,0-.2-.1-.3-.1h0c-.09,0-.19-.1-.29-.1h-.1c-.1,0-.2-.1-.3-.1h-.1c-.1,0-.2-.1-.3-.1H6.72c-.1,0-.1-.09-.2-.09a.1.1,0,0,1-.1-.1.35.35,0,0,1-.2-.1h-.1c-.1-.1-.2-.1-.3-.2a.1.1,0,0,1-.1-.1c-.09,0-.09-.1-.19-.1h-.1c-.1,0-.1-.1-.2-.1a.1.1,0,0,1-.1-.1c-.1,0-.1-.1-.2-.1a.1.1,0,0,1-.1-.1c-.1-.1-.2-.1-.2-.19h0c-.1-.1-.19-.1-.19-.2l-.1-.1-.2-.2-.1-.1a1.24,1.24,0,0,0-.2-.3h0c-.1-.1-.1-.19-.2-.19l-.1-.1-.19-.2-.1-.1c-.1-.1-.1-.2-.2-.2a7.67,7.67,0,0,1-.89-7.83"/><path class="cls-2" d="M5.63,6.84a5.21,5.21,0,0,0-.2,5.26c.2.29.29.49.49.79s.3.5.6.69c.1.1.2.2.2.3l.09.1.2.2H7c.1.1.2.2.3.2l.1.1c.1.09.2.09.3.19h0l.1.1H7.9c.1,0,.1.1.2.1h0c.1,0,.1.1.2.1h.1a.1.1,0,0,1,.1.1h0c.1,0,.2.1.3.1h.1a.31.31,0,0,1,.19.1h.1c.1,0,.1.1.2.1h.1c.1,0,.2.1.3.1,5.55.89,6.74-3.37,6.74-3.37a5.08,5.08,0,0,1-5.75,1.78c-.1,0-.2-.1-.3-.1h-.1c-.1,0-.1,0-.2-.1h-.09a.35.35,0,0,1-.2-.1h-.1c-.1,0-.2-.1-.3-.1s-.1,0-.1-.09h-.1c-.1,0-.1-.1-.2-.1h0c-.09,0-.09-.1-.19-.1H8.8l-.1-.1c-.1-.1-.2-.1-.3-.2l-.1-.1A7.27,7.27,0,0,1,6,9.62a5.05,5.05,0,0,1,.4-4"/><path class="cls-2" d="M9.49,5.56a3.4,3.4,0,0,0-.3,3.07A4.51,4.51,0,0,0,11.67,11h.2c.1,0,.1,0,.2.1a3.34,3.34,0,0,0,4.06-1.89c-.69,1.09-2,1.29-3.47.89-.1,0-.2-.09-.39-.09s-.3-.1-.4-.2a3.26,3.26,0,0,1-.79-.5c-1.29-1-2.18-3-1.29-4.56"/></g><rect class="cls-3" x="28.82" y="8.23" width="29.74" height="9.12"/><text class="cls-4" transform="translate(29.08 15.37)">Jquery</text></g></g></svg>