<svg xmlns="http://www.w3.org/2000/svg" xmlns:xlink="http://www.w3.org/1999/xlink" viewBox="0 0 76.01 25.74"><defs><style>.cls-1{stroke:#919191;stroke-miterlimit:10;fill:url(#linear-gradient);}.cls-2{fill:#ef533f;}.cls-3{fill:none;}.cls-4{isolation:isolate;font-size:8.41px;font-family:Poppins-Medium, Poppins;font-weight:500;}</style><linearGradient id="linear-gradient" x1="364.61" y1="-1799.98" x2="431.58" y2="-1799.98" gradientTransform="matrix(1, 0, 0, -1, -356, -1787.11)" gradientUnits="userSpaceOnUse"><stop offset="0" stop-color="#fff"/><stop offset="1" stop-color="#d1d3d4"/></linearGradient></defs><title>laravel</title><g id="Layer_2" data-name="Layer 2"><g id="Layer_2-2" data-name="Layer 2"><polyline class="cls-1" points="8.61 3.37 8.61 0.5 75.5 0.5 75.5 25.24 8.61 25.24 8.61 22.67"/><path class="cls-2" d="M10.49,19c-.1,0-.2,0-.2-.1l-2-3.27-3.66,1a.37.37,0,0,1-.3-.1L0,8.42v-.2c0-.3.1-.3.2-.3l3.66-.49a.37.37,0,0,1,.3.1L8.61,15l5.15-1.39-1.69-2.37c-.1-.1-.1-.2,0-.2s.1-.1.2-.2l2.38-.59a.36.36,0,0,1,.29.1L17,12.87c.1.1.1.2,0,.2s-.1.1-.2.2l-2.27.59,1.88,2.67c0,.1.1.2,0,.2s-.1.1-.2.2L10.49,19ZM8.81,15.34l1.78,3,5.24-1.78L14.05,14ZM.59,8.42,4.65,16,8,15.15,3.76,7.92Zm12,2.67,1.58,2.27,2-.49-1.68-2.18Z"/><rect class="cls-3" x="28.01" y="9.01" width="31.47" height="7.82"/><text class="cls-4" transform="translate(28.44 16.15)">Laravel</text></g></g></svg>