<svg xmlns="http://www.w3.org/2000/svg" xmlns:xlink="http://www.w3.org/1999/xlink" viewBox="0 0 75.51 25.58"><defs><style>.cls-1{stroke:#919191;stroke-miterlimit:10;fill:url(#linear-gradient);}.cls-2{fill:#2a4d80;fill-rule:evenodd;}.cls-3{fill:none;}.cls-4{isolation:isolate;font-size:8.36px;font-family:Poppins-Medium, Poppins;font-weight:500;}</style><linearGradient id="linear-gradient" x1="364.46" y1="-1872.44" x2="431.01" y2="-1872.44" gradientTransform="matrix(1, 0, 0, -1, -356, -1859.65)" gradientUnits="userSpaceOnUse"><stop offset="0" stop-color="#fff"/><stop offset="1" stop-color="#d1d3d4"/></linearGradient></defs><title>less</title><g id="Layer_2" data-name="Layer 2"><g id="Layer_2-2" data-name="Layer 2"><polyline class="cls-1" points="8.46 3.35 8.46 0.5 75.01 0.5 75.01 25.08 8.46 25.08 8.46 22.52"/><g id="plain-wordmark"><path class="cls-2" d="M17.6,12.4a1.25,1.25,0,0,1-.1-.59V10.23a1.14,1.14,0,0,0-.59-1.08,2.53,2.53,0,0,0-1.38-.29v.78h.1c.59,0,.79.2.79.79v1.28A1.6,1.6,0,0,0,17,13.08v.1a1.81,1.81,0,0,0-.49.69c0,.3-.1.49-.1.79V16c0,.4-.2.5-.49.59a.6.6,0,0,0-.4.1v.79a1.63,1.63,0,0,0,.69-.1,1.29,1.29,0,0,0,1.28-1.18v-2a.75.75,0,0,1,.79-.68v-.89A.51.51,0,0,1,17.6,12.4Z"/><path class="cls-2" d="M3.93,14.17V8.86H2.06A1.2,1.2,0,0,0,.88,10v1.77c0,.49-.19.88-.78.88H0v.79c.59.1.79.29.79.88v1.77c0,.49.09.89.59,1.08a7.61,7.61,0,0,0,1.27.3v-.79H2.56c-.59,0-.79-.19-.79-.88V14.56a1.63,1.63,0,0,0-.59-1.38v-.1a1,1,0,0,0,.49-.88V10.33a.63.63,0,0,1,.49-.59A2.72,2.72,0,0,0,3,9.64v.3c0,1.47-.1,3.05,0,4.52a1.36,1.36,0,0,0,.59,1.28,2.84,2.84,0,0,0,1,.2,2.71,2.71,0,0,0,.1-.89C4,15,3.93,14.85,3.93,14.17Z"/><path class="cls-2" d="M7.77,11.31a2.12,2.12,0,0,0-2.85,1,2.67,2.67,0,0,0,0,2.46,1.61,1.61,0,0,0,1,1,3.34,3.34,0,0,0,2.56,0,.36.36,0,0,0,.09-.2c0-.19-.09-.49-.09-.69a1.25,1.25,0,0,1-.59.1,2.18,2.18,0,0,1-1.38-.1,1,1,0,0,1-.69-1.08H8.85a4.51,4.51,0,0,0-.2-1.57A1.57,1.57,0,0,0,7.77,11.31Zm0,1.77h-2A1.09,1.09,0,0,1,6.88,12,1,1,0,0,1,7.77,13.08Z"/><path class="cls-2" d="M15.93,14.85a1.32,1.32,0,0,0-.79-1.47c-.2-.1-.49-.2-.69-.3a2,2,0,0,1-.49-.29c-.2-.1-.2-.3-.2-.49a.27.27,0,0,1,.3-.3c.2,0,.39-.1.69-.1a2.8,2.8,0,0,1,.88.2c.1-.29.1-.49.2-.88-.39-.1-.79-.1-1.18-.2a2.87,2.87,0,0,0-1.28.2,1.25,1.25,0,0,0-.1,2.16,2.68,2.68,0,0,1,.69.39,2.94,2.94,0,0,1,.79.4.35.35,0,0,1,.19.49c0,.19-.19.29-.39.29s-.59.1-.79,0a3.86,3.86,0,0,1-1-.19c-.1.29-.1.59-.2.88a4.78,4.78,0,0,0,2.36.2A1.06,1.06,0,0,0,15.93,14.85Z"/><path class="cls-2" d="M11.8,13.48a3.49,3.49,0,0,0-.89-.4,2,2,0,0,1-.49-.29.44.44,0,0,1,.1-.79,1.44,1.44,0,0,1,.69-.1,2.8,2.8,0,0,1,.88.2c.1-.29.1-.49.2-.79-.2,0-.3-.09-.49-.09a3.54,3.54,0,0,0-1.77,0,1.28,1.28,0,0,0-.89,1.08,1.18,1.18,0,0,0,.69,1.37c.2.1.49.2.69.3s.49.2.69.29.19.3.19.5-.19.29-.39.29-.59.1-.79,0a3.49,3.49,0,0,1-1-.2,1.68,1.68,0,0,0-.1.69.35.35,0,0,0,.1.2,4,4,0,0,0,2.36.1,1.16,1.16,0,0,0,.89-1A1.31,1.31,0,0,0,11.8,13.48Z"/></g><rect class="cls-3" x="35.98" y="8.17" width="18.29" height="8.26"/><text class="cls-4" transform="translate(36.17 15.25)">Less</text></g></g></svg>