<svg xmlns="http://www.w3.org/2000/svg" xmlns:xlink="http://www.w3.org/1999/xlink" viewBox="0 0 76.01 25.71"><defs><style>.cls-1{stroke:#919191;stroke-miterlimit:10;fill:url(#linear-gradient);}.cls-2{fill:#00aeec;}.cls-3{fill:#0092d3;}.cls-4{isolation:isolate;font-size:8.4px;font-family:Poppins-Medium, Poppins;font-weight:500;}</style><linearGradient id="linear-gradient" x1="364.6" y1="-1956.13" x2="431.51" y2="-1956.13" gradientTransform="matrix(1, 0, 0, -1, -356, -1943.27)" gradientUnits="userSpaceOnUse"><stop offset="0" stop-color="#fff"/><stop offset="1" stop-color="#d1d3d4"/></linearGradient></defs><title>material-design</title><g id="Layer_2" data-name="Layer 2"><g id="Layer_2-2" data-name="Layer 2"><polyline class="cls-1" points="8.6 3.37 8.6 0.5 75.51 0.5 75.51 25.21 8.6 25.21 8.6 22.64"/><path class="cls-2" d="M0,13.45V6.13L6.33,9.79v2.47L2.08,9.79v4.94Z"/><path class="cls-3" d="M6.42,9.79l6.33-3.66v7.32L8.5,15.92,6.42,14.73l4.25-2.47V9.79L6.42,12.26Z"/><path class="cls-2" d="M6.42,14.73V17.2l4.25,2.47V17.2Z"/><path class="cls-3" d="M10.67,19.57,17,15.92V11l-2.18,1.28v2.47L10.57,17.2v2.37Zm4.15-9.78V7.32L16.9,6.13V8.6Z"/><text class="cls-4" transform="translate(24.01 16.75)">MaterialUI</text></g></g></svg>