<svg xmlns="http://www.w3.org/2000/svg" xmlns:xlink="http://www.w3.org/1999/xlink" viewBox="0 0 76 25.9"><defs><style>.cls-1{stroke:#919191;stroke-miterlimit:10;fill:url(#linear-gradient);}.cls-2{fill:none;}.cls-3{isolation:isolate;font-size:8.47px;font-family:Poppins-Medium, Poppins;font-weight:500;}.cls-4{fill:#623697;}</style><linearGradient id="linear-gradient" x1="364.17" y1="-2179.99" x2="431.58" y2="-2179.99" gradientTransform="matrix(1, 0, 0, -1, -356, -2167.04)" gradientUnits="userSpaceOnUse"><stop offset="0" stop-color="#fff"/><stop offset="1" stop-color="#d1d3d4"/></linearGradient></defs><title>net-core</title><g id="Layer_2" data-name="Layer 2"><g id="Layer_2-2" data-name="Layer 2"><polyline class="cls-1" points="8.17 3.39 8.17 0.5 75.5 0.5 75.5 25.4 8.17 25.4 8.17 22.81"/><rect class="cls-2" x="23.81" y="8.67" width="40.94" height="8.77"/><text class="cls-3" transform="translate(24.24 15.9)">.NET Core</text><path class="cls-4" d="M7.77,4.88h.6A8.77,8.77,0,0,1,13,6.48a7.77,7.77,0,0,1,2.69,3.68,7.41,7.41,0,0,1,.5,2.49v.5a10.1,10.1,0,0,1-1.2,4.08,7.71,7.71,0,0,1-3.58,3.09,8.24,8.24,0,0,1-3.09.7H8a7.62,7.62,0,0,1-4.18-1.3A7.87,7.87,0,0,1,.6,15.94,11.71,11.71,0,0,1,0,13.25v-.6a9.09,9.09,0,0,1,1.89-5A9.4,9.4,0,0,1,5.58,5.18l2.19-.3M3.19,9.66v4.59h.5v-4c.1.1.1.2.19.3.8,1.2,1.6,2.39,2.3,3.59h.69V9.56h-.5v3.89c-.79-1.3-1.69-2.59-2.49-3.89a1.68,1.68,0,0,0-.69.1m4.88-.1v4.59h2.49v-.5H8.67v-1.6h1.69v-.49H8.67v-1.5h1.79v-.5H8.07m2.89.1v.5h1.29v4.09h.6V10.16h1.29v-.5a16.89,16.89,0,0,0-3.18,0M1.69,13.55a.31.31,0,0,0,0,.6.34.34,0,0,0,.5-.3c.1-.2-.2-.4-.5-.3m3.69,2a1.18,1.18,0,0,0,.1,1.79,1.07,1.07,0,0,0,1.09,0v-.2A.9.9,0,0,1,5.48,17a1,1,0,0,1,.2-1.49,1.36,1.36,0,0,1,.89,0v-.3a1.93,1.93,0,0,0-1.19.3m2.19.3a.82.82,0,0,0-.6.4.9.9,0,0,0,.1,1,.67.67,0,0,0,1,0A1,1,0,0,0,8.17,16a.85.85,0,0,0-.6-.2m2.29.4a.91.91,0,0,0,.2,1.19,1,1,0,0,0,.9,0v-.2a.88.88,0,0,1-.7.1c-.2-.1-.2-.3-.2-.49h1.1a1,1,0,0,0-.2-.7.65.65,0,0,0-1.1.1m-1.09-.3v1.49H9v-.79a.52.52,0,0,1,.2-.4c.1-.1.2,0,.4,0V16c-.2-.1-.4.1-.5.3v-.2C9,15.94,8.87,15.94,8.77,15.94Z"/><path class="cls-4" d="M7.47,16.14a.4.4,0,0,1,.6.2,1.08,1.08,0,0,1,0,.79.59.59,0,0,1-.9-.19A.71.71,0,0,1,7.47,16.14Z"/><path class="cls-4" d="M10,16.54c0-.2.1-.4.3-.4a.6.6,0,0,1,.4.1.37.37,0,0,1,.1.3Z"/></g></g></svg>