<svg xmlns="http://www.w3.org/2000/svg" xmlns:xlink="http://www.w3.org/1999/xlink" viewBox="0 0 77.01 25.55"><defs><style>.cls-1{stroke:#919191;stroke-miterlimit:10;fill:url(#linear-gradient);}.cls-2{fill:none;}.cls-3{isolation:isolate;font-size:8.35px;font-family:Poppins-Medium, Poppins;font-weight:500;}.cls-4{fill:url(#linear-gradient-2);}.cls-5{fill:url(#linear-gradient-3);}.cls-6{fill:url(#linear-gradient-4);}.cls-7{fill:#13569b;}.cls-8{fill:url(#linear-gradient-5);}.cls-9{fill:#266ab4;}.cls-10{fill:url(#linear-gradient-6);}.cls-11{fill:url(#linear-gradient-7);}.cls-12{fill:url(#linear-gradient-8);}.cls-13{fill:#2c75b2;}.cls-14{fill:#145b9e;}.cls-15{fill:url(#linear-gradient-9);}.cls-16{fill:#1982c5;}.cls-17{fill:url(#linear-gradient-10);}.cls-18{fill:#277bbf;}.cls-19{fill:url(#linear-gradient-11);}.cls-20{fill:url(#linear-gradient-12);}.cls-21{fill:#269fda;}.cls-22{fill:url(#linear-gradient-13);}.cls-23{fill:url(#linear-gradient-14);}.cls-24{fill:#2898d5;}.cls-25{fill:#295eac;}.cls-26{fill:#2862ae;}.cls-27{fill:#1d60ab;}.cls-28{fill:url(#linear-gradient-15);}.cls-29{fill:#61c5ec;}.cls-30{fill:url(#linear-gradient-16);}.cls-31{fill:url(#linear-gradient-17);}.cls-32{fill:url(#linear-gradient-18);}.cls-33{fill:url(#linear-gradient-19);}.cls-34{fill:url(#linear-gradient-20);}.cls-35{fill:#7ecbeb;}</style><linearGradient id="linear-gradient" x1="366.03" y1="-2251.28" x2="432.51" y2="-2251.28" gradientTransform="matrix(1, 0, 0, -1, -356, -2238.5)" gradientUnits="userSpaceOnUse"><stop offset="0" stop-color="#fff"/><stop offset="1" stop-color="#d1d3d4"/></linearGradient><linearGradient id="linear-gradient-2" x1="1.02" y1="-2308.99" x2="26.85" y2="-2308.99" gradientTransform="matrix(1, 0, 0, -1, 0.33, -2295.5)" gradientUnits="userSpaceOnUse"><stop offset="0" stop-color="#206bb5"/><stop offset="0.4" stop-color="#3dade2"/><stop offset="0.85" stop-color="#2397d4"/><stop offset="1" stop-color="#2397d4"/></linearGradient><linearGradient id="linear-gradient-3" x1="-172.42" y1="-734.01" x2="-172.35" y2="-734.01" gradientTransform="translate(-109893.86 25825.68) rotate(90) scale(149.73)" gradientUnits="userSpaceOnUse"><stop offset="0" stop-color="#2693d1"/><stop offset="0.35" stop-color="#67cef4"/><stop offset="0.85" stop-color="#277bbf"/><stop offset="1" stop-color="#277bbf"/></linearGradient><linearGradient id="linear-gradient-4" x1="-172.68" y1="-733.96" x2="-172.61" y2="-733.96" gradientTransform="translate(-112690.04 26524.4) rotate(90) scale(153.55)" gradientUnits="userSpaceOnUse"><stop offset="0" stop-color="#1377bc"/><stop offset="0.36" stop-color="#3dade2"/><stop offset="0.85" stop-color="#2dabe2"/><stop offset="1" stop-color="#2dabe2"/></linearGradient><linearGradient id="linear-gradient-5" x1="-197.09" y1="-733.46" x2="-197.02" y2="-733.46" gradientTransform="translate(89625.47 -24062.66) rotate(-90) scale(122.18)" gradientUnits="userSpaceOnUse"><stop offset="0" stop-color="#2865b0"/><stop offset="0.5" stop-color="#3fbced"/><stop offset="1" stop-color="#3fbced" stop-opacity="0.42"/></linearGradient><linearGradient id="linear-gradient-6" x1="-173.01" y1="-733.81" x2="-172.94" y2="-733.81" gradientTransform="translate(-116980.16 27590.2) rotate(90) scale(159.43)" xlink:href="#linear-gradient-2"/><linearGradient id="linear-gradient-7" x1="-173.66" y1="-733.87" x2="-173.59" y2="-733.87" gradientTransform="translate(-124402.8 29448.45) rotate(90) scale(169.53)" gradientUnits="userSpaceOnUse"><stop offset="0" stop-color="#174479"/><stop offset="0.39" stop-color="#1d87c9"/><stop offset="0.78" stop-color="#165297"/><stop offset="1" stop-color="#165297"/></linearGradient><linearGradient id="linear-gradient-8" x1="800.27" y1="1752.47" x2="800.67" y2="1752.47" gradientTransform="translate(-3227.15 -7068.35) scale(4.04)" gradientUnits="userSpaceOnUse"><stop offset="0" stop-color="#3fbced" stop-opacity="0.7"/><stop offset="1" stop-color="#20acd8"/></linearGradient><linearGradient id="linear-gradient-9" x1="-197.46" y1="-734.17" x2="-197.39" y2="-734.17" gradientTransform="translate(87398.56 -23484.6) rotate(-90) scale(119.02)" gradientUnits="userSpaceOnUse"><stop offset="0" stop-color="#166bb5"/><stop offset="0.6" stop-color="#5ec9f4" stop-opacity="0.55"/><stop offset="1" stop-color="#5ec9f4" stop-opacity="0.24"/></linearGradient><linearGradient id="linear-gradient-10" x1="-197.12" y1="-732.5" x2="-197.05" y2="-732.5" gradientTransform="translate(89273.1 -24005.72) rotate(-90) scale(121.87)" gradientUnits="userSpaceOnUse"><stop offset="0" stop-color="#388dcc"/><stop offset="1" stop-color="#40a6de"/></linearGradient><linearGradient id="linear-gradient-11" x1="-197.5" y1="-732.53" x2="-197.43" y2="-732.53" gradientTransform="translate(86779.75 -23378.18) rotate(-90) scale(118.46)" gradientUnits="userSpaceOnUse"><stop offset="0" stop-color="#269fda"/><stop offset="1" stop-color="#269fda" stop-opacity="0.55"/></linearGradient><linearGradient id="linear-gradient-12" x1="-199.93" y1="-732.39" x2="-199.87" y2="-732.39" gradientTransform="translate(73316.7 -19995.69) rotate(-90) scale(100.1)" gradientUnits="userSpaceOnUse"><stop offset="0" stop-color="#1e5ba6"/><stop offset="0.5" stop-color="#269fda"/><stop offset="0.92" stop-color="#7fc5e9"/><stop offset="1" stop-color="#7fc5e9"/></linearGradient><linearGradient id="linear-gradient-13" x1="-213.31" y1="-734.42" x2="-213.24" y2="-734.42" gradientTransform="translate(41673.13 -12085.78) rotate(-90) scale(56.72)" gradientUnits="userSpaceOnUse"><stop offset="0" stop-color="#269fda"/><stop offset="0.87" stop-color="#1795d3"/><stop offset="1" stop-color="#1795d3"/></linearGradient><linearGradient id="linear-gradient-14" x1="-171.01" y1="-735.39" x2="-170.94" y2="-735.39" gradientTransform="matrix(-23.06, 130.78, -130.78, -23.06, -100099.36, 5415.79)" gradientUnits="userSpaceOnUse"><stop offset="0" stop-color="#40a6de" stop-opacity="0.33"/><stop offset="0.96" stop-color="#2687c8"/><stop offset="1" stop-color="#2687c8"/></linearGradient><linearGradient id="linear-gradient-15" x1="-169.99" y1="-733.23" x2="-169.92" y2="-733.23" gradientTransform="translate(-90712.88 21043.86) rotate(90) scale(123.74)" gradientUnits="userSpaceOnUse"><stop offset="0" stop-color="#258bcc"/><stop offset="0.5" stop-color="#2287c9"/><stop offset="1" stop-color="#164c8d"/></linearGradient><linearGradient id="linear-gradient-16" x1="-159.59" y1="-683.25" x2="-159.53" y2="-683.25" gradientTransform="translate(-3521.17 21368.02) rotate(22.53) scale(30.85)" gradientUnits="userSpaceOnUse"><stop offset="0" stop-color="#98d5ed"/><stop offset="0.7" stop-color="#57c1ea"/><stop offset="1" stop-color="#57c1ea"/></linearGradient><linearGradient id="linear-gradient-17" x1="-209.45" y1="-669.3" x2="-209.38" y2="-669.3" gradientTransform="translate(11555.51 12937.51) rotate(-24.4) scale(24.72)" gradientUnits="userSpaceOnUse"><stop offset="0" stop-color="#7bcceb"/><stop offset="1" stop-color="#45b7e9"/></linearGradient><linearGradient id="linear-gradient-18" x1="-169.73" y1="-733.35" x2="-169.66" y2="-733.35" gradientTransform="translate(-88741.48 20552.34) rotate(90) scale(121.03)" gradientUnits="userSpaceOnUse"><stop offset="0" stop-color="#2da6de"/><stop offset="1" stop-color="#3eaae0" stop-opacity="0"/></linearGradient><linearGradient id="linear-gradient-19" x1="0.58" y1="-2309.07" x2="6.65" y2="-2309.07" gradientTransform="matrix(1, 0, 0, -1, 0.33, -2295.5)" gradientUnits="userSpaceOnUse"><stop offset="0" stop-color="#165196"/><stop offset="1" stop-color="#1982c5"/></linearGradient><linearGradient id="linear-gradient-20" x1="-0.33" y1="-2309.05" x2="5.69" y2="-2309.05" gradientTransform="matrix(1, 0, 0, -1, 0.33, -2295.5)" gradientUnits="userSpaceOnUse"><stop offset="0" stop-color="#269fda" stop-opacity="0.25"/><stop offset="1" stop-color="#269fda"/></linearGradient></defs><title>net-mvc</title><g id="Layer_2" data-name="Layer 2"><g id="Layer_2-2" data-name="Layer 2"><polyline class="cls-1" points="10.03 3.35 10.03 0.5 76.51 0.5 76.51 25.05 10.03 25.05 10.03 22.5"/><rect class="cls-2" x="27.02" y="9.14" width="39.18" height="7.76"/><text class="cls-3" transform="translate(27.15 16.21)">.NET MVC</text><g id="Layer_1-2" data-name="Layer 1-2"><path class="cls-4" d="M17.7,9.27a2.81,2.81,0,0,0-2.53,2.18c-.7,2.21-1.53,4.55-1.51,4.54-.78-2.33-1.06-6.55-3.32-6.55H5.84C3.89,9.43,1.23,13,0,17.72l2.25,0A2.9,2.9,0,0,0,5,15.44c.31-1,.56-1.83.79-2.52C6.29,12.17,7.37,11,7.37,11c.77,2.35,1,6.52,3.3,6.52h4.39c1.68-.21,3.39-3.27,6.17-8.23Zm-8.59.17h0Z"/><path class="cls-5" d="M7.37,11c.77,2.35,1,6.52,3.3,6.52a2.31,2.31,0,0,0,.52-.06c-2-.46-2.27-4.61-3.5-6.74Z"/><path class="cls-6" d="M7.67,10.69C8.9,12.83,9.15,17,11.18,17.43a2.41,2.41,0,0,0,.48-.12c-1.83-.9-2.33-4.91-3.74-6.84A3,3,0,0,1,7.67,10.69Z"/><path class="cls-7" d="M9.46,9.41a4.38,4.38,0,0,0-.52,0A3.83,3.83,0,0,0,7.56,10a3.52,3.52,0,0,1,.36.41A4.93,4.93,0,0,1,9.33,9.6a4.44,4.44,0,0,1,.52-.15A2.58,2.58,0,0,0,9.46,9.41Z"/><path class="cls-8" d="M13.1,16.48c.18-.15.37-.31.56-.49-.78-2.33-1.06-6.55-3.32-6.55a2.72,2.72,0,0,0-.49.05C11.91,10,12.18,14.44,13.1,16.48Z"/><path class="cls-9" d="M13.05,17l-.25-.26a4.77,4.77,0,0,1-1.14.6,1.25,1.25,0,0,0,.41.14,1.14,1.14,0,0,0,.37,0,2.26,2.26,0,0,0,1.06-.17A3,3,0,0,1,13.05,17Z"/><path class="cls-10" d="M9.33,9.6c1.84,1,2,5.32,3.47,7.09l.3-.22c-.92-2-1.19-6.51-3.24-7A2.44,2.44,0,0,0,9.33,9.6Z"/><path class="cls-11" d="M7.92,10.47c1.41,1.92,1.9,5.94,3.74,6.84a4.77,4.77,0,0,0,1.14-.6c-1.46-1.79-1.63-6.15-3.47-7.11A4.68,4.68,0,0,0,7.92,10.47Z"/><path class="cls-12" d="M6.48,10.9a20.93,20.93,0,0,0-.72,2A13.68,13.68,0,0,1,7.37,11c-.07-.21-.16-.41-.24-.63C6.91,10.51,6.69,10.71,6.48,10.9Z"/><path class="cls-13" d="M7.33,10.19c-.07,0-.12.1-.19.14.08.21.16.41.23.63l.3-.28A3.3,3.3,0,0,0,7.33,10.19Z"/><path class="cls-14" d="M7.56,10l-.24.16a3.3,3.3,0,0,1,.34.49c.08-.07.16-.16.25-.23A2.79,2.79,0,0,0,7.56,10Z"/><path class="cls-15" d="M20.11,9.23c-1,4-3.22,7.23-5,8.05l-.1,0h-.31a.8.8,0,0,0,.26.05c1.73,0,3.47-3.09,6.35-8.25H20.09Z"/><path class="cls-16" d="M6.48,10.9c.21-.2.43-.38.66-.56,0-.1-.1-.21-.16-.31A4.18,4.18,0,0,0,6.48,10.9Zm.15-1.3A1.73,1.73,0,0,1,7,10l.1-.11a2.27,2.27,0,0,0-.46-.3h0"/><path class="cls-17" d="M1.28,15.74c1.77-3.42,2.61-5.58,4.1-6.17C3.85,10.17,2.12,12.43,1.28,15.74Z"/><path class="cls-18" d="M7.08,9.92A.52.52,0,0,0,7,10a1.82,1.82,0,0,1,.16.31,1.33,1.33,0,0,1,.19-.14,3.33,3.33,0,0,0-.25-.28"/><path class="cls-19" d="M2.1,17.68H2a2.92,2.92,0,0,0,3-2.25c.31-1,.57-1.83.79-2.52a38.47,38.47,0,0,0-2.28,3.74A1.84,1.84,0,0,1,2.1,17.68Z"/><path class="cls-20" d="M2.1,17.68a1.88,1.88,0,0,0,1.4-1,36.42,36.42,0,0,1,2.26-3.74q.31-1,.72-2A22.67,22.67,0,0,0,2.1,17.68Z"/><path class="cls-21" d="M1.28,15.74c-.33.61-.66,1.26-1,2H.9C1,17,1.13,16.38,1.28,15.74Z"/><path class="cls-22" d="M16.05,11.45c-.34,1.1-.62,2-.86,2.74a29.73,29.73,0,0,0,2.74-4.78A2.81,2.81,0,0,0,16.05,11.45Z"/><path class="cls-23" d="M15.22,17.21c-.05,0-.1,0-.14.07,1.82-.82,4-4,5-8h-.22C17.52,13.5,16.75,16.37,15.22,17.21Z"/><path class="cls-24" d="M14,16.86a8.72,8.72,0,0,0,1.16-2.65A12.3,12.3,0,0,1,13.67,16,3.93,3.93,0,0,0,14,16.86Z"/><path class="cls-9" d="M14,16.86a1.77,1.77,0,0,1-.44.38s-.07,0-.11.06a1.75,1.75,0,0,0,.56.18h.59a1.21,1.21,0,0,1-.6-.58Z"/><path class="cls-25" d="M10.68,17.48a2.31,2.31,0,0,0,.52-.06,2.81,2.81,0,0,0,.48-.12,1.9,1.9,0,0,0,.78.18Zm1.77,0a2.5,2.5,0,0,0,1.05-.18,1.9,1.9,0,0,0,.57.18H12.45Z"/><path class="cls-26" d="M14.23,17.48h.38a.84.84,0,0,0,.27,0h-.66Z"/><path class="cls-27" d="M13.66,16c-.18.17-.37.34-.56.49l-.3.23.25.27a2,2,0,0,0,.44.33s.07,0,.11-.06a1.33,1.33,0,0,0,.44-.38A4.59,4.59,0,0,1,13.66,16Z"/><path class="cls-28" d="M19.23,9.23H18l-.09.17a29.32,29.32,0,0,1-2.74,4.77A8.45,8.45,0,0,1,14,16.83a1.25,1.25,0,0,0,.6.58h.3l.1,0a.91.91,0,0,1,.14-.07c1.52-.85,2.29-3.72,4.68-8h-.62Z"/><path class="cls-29" d="M7.08,9.92a3.33,3.33,0,0,1,.25.28L7.57,10a1.65,1.65,0,0,0-.32-.26l-.17.14"/><path class="cls-30" d="M6,9.43h.13a1.81,1.81,0,0,1,1.08.35,1.91,1.91,0,0,1,1.31-.35H6"/><path class="cls-31" d="M8.54,9.41a2,2,0,0,0-1.29.36l.32.26A3.91,3.91,0,0,1,9,9.45l.52,0H8.54Z"/><path class="cls-32" d="M15.19,14.19c.24-.75.52-1.64.86-2.74a2.77,2.77,0,0,1,1.88-2L18,9.25a2.83,2.83,0,0,0-2.84,2.2c-.69,2.19-1.1,3.63-1.5,4.5A14.22,14.22,0,0,0,15.19,14.19Z"/><path class="cls-33" d="M.91,17.7H2.1a33.15,33.15,0,0,1,2.13-3.93,14.82,14.82,0,0,1,2.26-2.86A3.67,3.67,0,0,1,7,10a1.06,1.06,0,0,0-.49-.49,1.25,1.25,0,0,0-1.07,0A3.13,3.13,0,0,0,4,10.83a40.82,40.82,0,0,0-2.67,4.91A16.15,16.15,0,0,0,.91,17.7Z"/><path class="cls-34" d="M0,17.69H.24c.38-.68.73-1.34,1.05-2A12.87,12.87,0,0,1,3,11.8,4.74,4.74,0,0,1,6,9.41c-.65-.08-1.45.19-2.67,1.49a13.73,13.73,0,0,0-2.13,3.39A18.66,18.66,0,0,0,0,17.69Z"/><path class="cls-35" d="M7.08,9.92A1.88,1.88,0,0,0,6,9.41a1.76,1.76,0,0,1,.82.11,1.33,1.33,0,0,1,.41.25Z"/></g></g></g></svg>