<svg xmlns="http://www.w3.org/2000/svg" xmlns:xlink="http://www.w3.org/1999/xlink" viewBox="0 0 75.52 25.58"><defs><style>.cls-1{stroke:#919191;stroke-miterlimit:10;fill:url(#linear-gradient);}.cls-2{fill:#001e36;}.cls-3{fill:#31a8ff;}.cls-4{isolation:isolate;font-size:8.36px;font-family:Poppins-Medium, Poppins;font-weight:500;}</style><linearGradient id="linear-gradient" x1="364.36" y1="-2388.69" x2="431.02" y2="-2388.69" gradientTransform="matrix(1, 0, 0, -1, -356, -2375.9)" gradientUnits="userSpaceOnUse"><stop offset="0" stop-color="#fff"/><stop offset="1" stop-color="#d1d3d4"/></linearGradient></defs><title>photoshop</title><g id="Layer_2" data-name="Layer 2"><g id="Layer_2-2" data-name="Layer 2"><polyline class="cls-1" points="8.36 3.35 8.36 0.5 75.02 0.5 75.02 25.08 8.36 25.08 8.36 22.62"/><g id="Layer_2-3" data-name="Layer 2"><g id="Surfaces"><g id="Photo_Surface" data-name="Photo Surface"><g id="Outline_no_shadow" data-name="Outline no shadow"><path class="cls-2" d="M3,4.73H13.57a3,3,0,0,1,2.95,2.95V17.9a3,3,0,0,1-2.95,3H3A3,3,0,0,1,0,17.9V7.68A2.9,2.9,0,0,1,3,4.73Z"/></g></g></g><g id="Outlined_Mnemonics_Logos" data-name="Outlined Mnemonics Logos"><g id="Ps"><path class="cls-3" d="M3.74,16V9s0-.1.09-.1H5.9a5.59,5.59,0,0,1,1.38.19,1.84,1.84,0,0,1,.88.59,2.2,2.2,0,0,1,.49.79,2.86,2.86,0,0,1,.2.89,2.38,2.38,0,0,1-.39,1.47,3,3,0,0,1-1.09.88,4,4,0,0,1-1.57.2H5.21V16a.1.1,0,0,1-.1.1h0L3.74,16Zm1.47-5.8v2.26H5.9a2.4,2.4,0,0,0,.79-.09,2.2,2.2,0,0,0,.59-.4,1.48,1.48,0,0,0,.19-.68.73.73,0,0,0-.19-.59,1,1,0,0,0-.5-.4,2.1,2.1,0,0,0-.78-.1H5.21Z"/><path class="cls-3" d="M13.17,12.1a1.36,1.36,0,0,0-.68-.19,1.46,1.46,0,0,0-.69-.1h-.39a.35.35,0,0,0-.2.1c0,.09-.1.09-.1.19s0,.1.1.2l.2.19c.19.1.29.2.49.2a6,6,0,0,1,1.08.49,1.82,1.82,0,0,1,.59.59,1.79,1.79,0,0,1,.19.69,1.36,1.36,0,0,1-.29.89,1.57,1.57,0,0,1-.79.59,4.6,4.6,0,0,1-1.27.19,3.68,3.68,0,0,1-1-.1,1.84,1.84,0,0,1-.69-.19l-.09-.1V14.46h.09a1.58,1.58,0,0,0,.89.3,2.34,2.34,0,0,0,.79.09c.29,0,.49,0,.58-.09s.2-.2.2-.3-.1-.2-.2-.29a1.43,1.43,0,0,0-.68-.3,3.06,3.06,0,0,1-1-.49,2.84,2.84,0,0,1-.49-.59,1.79,1.79,0,0,1-.19-.69,1.79,1.79,0,0,1,.19-.78,1.3,1.3,0,0,1,.69-.59,2.11,2.11,0,0,1,1.18-.2,2.65,2.65,0,0,1,.88.1,1.46,1.46,0,0,1,.59.19.1.1,0,0,1,.1.1V12.2C13.27,12.1,13.27,12.1,13.17,12.1Z"/></g></g></g><text class="cls-4" transform="translate(22.34 16.66)">Photoshop</text></g></g></svg>