<svg xmlns="http://www.w3.org/2000/svg" xmlns:xlink="http://www.w3.org/1999/xlink" viewBox="0 0 74.69 25.51"><defs><style>.cls-1{stroke:#919191;stroke-miterlimit:10;fill:url(#linear-gradient);}.cls-2{isolation:isolate;font-size:8.33px;font-family:Poppins-Medium, Poppins;font-weight:500;}.cls-3{fill:#336791;}.cls-4{fill:#fff;}</style><linearGradient id="linear-gradient" x1="363.72" y1="-2529.7" x2="430.27" y2="-2529.7" gradientTransform="matrix(1, 0, 0, -1, -356, -2516.94)" gradientUnits="userSpaceOnUse"><stop offset="0" stop-color="#fff"/><stop offset="1" stop-color="#d1d3d4"/></linearGradient></defs><title>postgre</title><g id="Layer_2" data-name="Layer 2"><g id="Layer_2-2" data-name="Layer 2"><polyline class="cls-1" points="7.72 3.34 7.72 0.5 74.19 0.5 74.19 25.01 7.72 25.01 7.72 22.46"/><text class="cls-2" transform="translate(21.98 16.62)">PostgreSql</text><path d="M11.65,16.64c.1-.86.07-1,.71-.85l.16,0A3.66,3.66,0,0,0,14,15.55c.81-.37,1.29-1,.49-.84-1.82.38-1.95-.24-1.95-.24,1.93-2.86,2.73-6.48,2-7.37-1.9-2.42-5.18-1.28-5.23-1.25h0a7.2,7.2,0,0,0-1.22-.12,3,3,0,0,0-1.92.57S.36,3.89.64,9.34c0,1.16,1.66,8.76,3.57,6.46.7-.84,1.37-1.55,1.37-1.55a1.75,1.75,0,0,0,1.16.3l0,0a1.23,1.23,0,0,0,0,.33c-.49.55-.34.65-1.33.85s-.41.57,0,.66a2,2,0,0,0,2.26-.73l0,.12c.2.15.18,1.11.21,1.79a6.63,6.63,0,0,0,.21,1.7c.14.37.31,1.34,1.6,1.06,1.08-.23,1.91-.56,2-3.66"/><path d="M9.25,21a1.61,1.61,0,0,1-1.17-.44,2.28,2.28,0,0,1-.56-1l0-.11a7.07,7.07,0,0,1-.25-1.89c0-.12,0-.24,0-.38s0-.22,0-.35a2.36,2.36,0,0,1-.65.21A3.17,3.17,0,0,1,5.27,17a1.48,1.48,0,0,1-.84-.5,1.34,1.34,0,0,1-1.36.32,2.69,2.69,0,0,1-1.38-1.44,13,13,0,0,1-.87-2.22A21.14,21.14,0,0,1,0,9.37,3.88,3.88,0,0,1,1.37,5.76c1.55-1.09,3.9-.45,4.76-.15a3.75,3.75,0,0,1,2-.51,7,7,0,0,1,1.17.11,6.72,6.72,0,0,1,2-.28A4.68,4.68,0,0,1,15.1,6.71c.64.82.33,2.54.08,3.49a15.26,15.26,0,0,1-1.7,4,5.1,5.1,0,0,0,.92-.11c.82-.17,1.06.27,1.12.47.27.79-.87,1.39-1.23,1.55a4.26,4.26,0,0,1-1.8.31h-.18l0,.13v.13a5.85,5.85,0,0,1-.73,3.22,2.57,2.57,0,0,1-1.75,1,2.3,2.3,0,0,1-.55.07ZM8,15.26c.37.29.41.85.43,1.89,0,.13,0,.25,0,.36A6.48,6.48,0,0,0,8.66,19c0,.05,0,.1.05.15.14.43.21.65.83.52s.78-.21,1-.51a5,5,0,0,0,.5-2.56h.63L11,16.56l0-.16c.06-.51.1-.88.44-1.12a1,1,0,0,1,.84-.13A1,1,0,0,1,12,14.6l-.05-.26.14-.22A14.16,14.16,0,0,0,14,9.89a4,4,0,0,0,.15-2.41c-1.54-2-4.2-1.15-4.48-1.06l-.05,0-.24,0-.12,0a6.07,6.07,0,0,0-1.1-.12A2.38,2.38,0,0,0,6.6,6.8L6.31,7,6,6.88C5.27,6.59,3.19,6,2.09,6.79a2.75,2.75,0,0,0-.83,2.52A20.26,20.26,0,0,0,2,12.76c.63,2.07,1.21,2.76,1.45,2.84,0,0,.15-.07.25-.2.71-.84,1.38-1.55,1.41-1.58l.36-.38.44.29a1.09,1.09,0,0,0,.57.2l1-.89-.16,1.54a1.31,1.31,0,0,0,0,.17l0,.3-.2.22,0,0,.57.27Z"/><path class="cls-3" d="M14.52,14.71c-1.82.38-1.95-.24-1.95-.24,1.93-2.86,2.73-6.48,2-7.37-1.9-2.42-5.18-1.28-5.23-1.25h0a7.2,7.2,0,0,0-1.22-.12,3,3,0,0,0-1.92.57S.36,3.89.64,9.34c0,1.16,1.66,8.76,3.57,6.46.7-.84,1.37-1.55,1.37-1.55a1.75,1.75,0,0,0,1.16.3l0,0a1.23,1.23,0,0,0,0,.33c-.49.55-.34.65-1.33.85s-.41.57,0,.66a2,2,0,0,0,2.26-.73l0,.12A3.3,3.3,0,0,1,8,17.52a4.84,4.84,0,0,0,.11,1.72c.15.41.3,1.34,1.6,1.06a1.91,1.91,0,0,0,1.72-1.83c0-.71.18-.61.19-1.24l.1-.31c.11-1,0-1.27.68-1.13l.16,0A3.66,3.66,0,0,0,14,15.55C14.84,15.18,15.32,14.55,14.52,14.71Z"/><path class="cls-4" d="M9.31,20.59a1.63,1.63,0,0,1-1.56-1.2,18.06,18.06,0,0,1-.2-4.13.2.2,0,0,1,.21-.2.21.21,0,0,1,.21.21,18.31,18.31,0,0,0,.17,4,1.24,1.24,0,0,0,1.61.89,1.57,1.57,0,0,0,1.48-1.5c.13-.71.37-2.74.4-3.14a.21.21,0,0,1,.22-.2.22.22,0,0,1,.2.23c0,.41-.28,2.44-.41,3.18a2,2,0,0,1-1.8,1.84A2.61,2.61,0,0,1,9.31,20.59ZM3.47,16.42a.78.78,0,0,1-.28-.05c-.7-.23-1.37-1.37-2-3.39a20.81,20.81,0,0,1-.8-3.65A3.49,3.49,0,0,1,1.6,6.08c1.7-1.21,4.57-.06,4.69,0a.21.21,0,0,1-.16.39h0s-2.78-1.11-4.29,0a3.1,3.1,0,0,0-1,2.88,19.71,19.71,0,0,0,.78,3.56c.54,1.8,1.17,2.94,1.71,3.12.09,0,.34.11.71-.33.7-.84,1.34-1.51,1.34-1.51a.21.21,0,0,1,.3,0,.22.22,0,0,1,0,.3s-.63.66-1.32,1.48A1.16,1.16,0,0,1,3.47,16.42Zm9.09-1.76a.19.19,0,0,1-.12,0,.21.21,0,0,1,0-.29C14.33,11.44,15,8,14.43,7.2a3.82,3.82,0,0,0-3.09-1.46A5.9,5.9,0,0,0,9.47,6l0,0a.21.21,0,0,1-.26-.11.22.22,0,0,1,.09-.27l.05,0h0a6,6,0,0,1,2-.31A4.3,4.3,0,0,1,14.76,7c.39.49.39,1.63,0,3.13a15,15,0,0,1-2,4.49A.2.2,0,0,1,12.56,14.66Zm.1,1.34a1.66,1.66,0,0,1-.81-.16.41.41,0,0,1-.22-.34c-.05-.88.43-1,.68-1.1l-.13-.18a2.84,2.84,0,0,1-.5-.79c0-.06-.1-.19-.18-.35-.47-.84-1.45-2.59-.82-3.48.29-.42.87-.58,1.72-.49a4.69,4.69,0,0,0-4.27-3.2,2.77,2.77,0,0,0-2.08.78A5.28,5.28,0,0,0,4.92,10a.21.21,0,0,1-.2.22.21.21,0,0,1-.21-.21A5.51,5.51,0,0,1,5.76,6.4a3.08,3.08,0,0,1,2.37-.9,4.83,4.83,0,0,1,3.64,1.71,5,5,0,0,1,1.1,2.07.24.24,0,0,1-.18.28h-.08c-.83-.13-1.37,0-1.59.28-.47.68.45,2.33.84,3a4.41,4.41,0,0,1,.21.39,3,3,0,0,0,.43.69,1.1,1.1,0,0,1,.26.43s.26.39,1.71.1c.36-.08.58,0,.64.19.13.39-.6.85-1,1A3.82,3.82,0,0,1,12.66,16Zm-.61-.53s.27.12.75.1a3.22,3.22,0,0,0,1.13-.23,2.51,2.51,0,0,0,.69-.46l-.07,0a2.75,2.75,0,0,1-1.94-.08l-.07-.05-.1,0C12.23,14.86,12,14.92,12.05,15.47Zm-6,1.17a2.66,2.66,0,0,1-.72-.1c-.26-.06-.69-.25-.68-.57s.52-.46.72-.5c.7-.14.74-.2,1-.48l.25-.3a.74.74,0,0,1,.53-.28.72.72,0,0,1,.3.08.87.87,0,0,1,.49.58.75.75,0,0,1-.09.66A2.11,2.11,0,0,1,6.08,16.64Zm-1-.65a1,1,0,0,0,.33.15,2.7,2.7,0,0,0,.62.08,1.68,1.68,0,0,0,1.42-.73.37.37,0,0,0,0-.3.52.52,0,0,0-.25-.32.43.43,0,0,0-.14,0s-.1,0-.21.13l-.24.29c-.27.34-.4.46-1.21.63a1.16,1.16,0,0,0-.35.11Zm1.61-1a.22.22,0,0,1-.21-.18s0-.07,0-.11a2.06,2.06,0,0,1-1.43-.64,2.34,2.34,0,0,1-.62-2,9.47,9.47,0,0,0,0-1.86,2.3,2.3,0,0,1,0-.23c0-.07,0-.24.58-.54a3.26,3.26,0,0,1,1.09-.34,1.16,1.16,0,0,1,1.4.95,4.52,4.52,0,0,1-.24,3.29c0,.11-.09.22-.13.32l0,.09a2.43,2.43,0,0,0-.23,1,.2.2,0,0,1-.17.24ZM4.93,10.1v.15a8.91,8.91,0,0,1,0,1.95,1.92,1.92,0,0,0,.51,1.61,1.64,1.64,0,0,0,1.17.52h0c0-.21.13-.42.21-.66l0-.08c0-.12.09-.23.14-.35a4.12,4.12,0,0,0,.21-3,.71.71,0,0,0-.54-.61A2.55,2.55,0,0,0,4.93,10.1ZM6.19,10a.38.38,0,0,0,.32.29.36.36,0,0,0,.37-.2c0-.07-.14-.15-.33-.18S6.2,9.94,6.19,10Zm.37.37H6.5a.51.51,0,0,1-.32-.2A.29.29,0,0,1,6.12,10c0-.1.13-.16.31-.16h.13a.66.66,0,0,1,.26.08c.12.07.13.14.12.18A.39.39,0,0,1,6.56,10.39ZM6.26,10a.36.36,0,0,0,.26.21h0a.34.34,0,0,0,.25-.14A.39.39,0,0,0,6.54,10H6.43A.3.3,0,0,0,6.26,10ZM12,9.87c0,.07-.14.27-.33.29a.33.33,0,0,1-.36-.2c0-.07.14-.15.33-.18S12,9.79,12,9.87Zm-.37.33a.37.37,0,0,1-.35-.23c0-.11.16-.2.35-.23h.12c.17,0,.27,0,.28.12a.29.29,0,0,1-.09.2.57.57,0,0,1-.26.14Zm.12-.39h-.11c-.19,0-.3.11-.3.15a.34.34,0,0,0,.29.17h0a.45.45,0,0,0,.22-.12c.05-.06.08-.12.07-.14S11.86,9.81,11.72,9.81Zm.52,4.3a.15.15,0,0,1-.11,0,.2.2,0,0,1-.06-.29,2.73,2.73,0,0,0,.28-2,7.72,7.72,0,0,1-.06-.84,7.21,7.21,0,0,1,.08-.75,3.17,3.17,0,0,0,.07-.83.21.21,0,0,1,.2-.22.23.23,0,0,1,.22.2,4.21,4.21,0,0,1-.07.91,4.82,4.82,0,0,0-.08.7,5.32,5.32,0,0,0,.06.78A3.14,3.14,0,0,1,12.42,14,.21.21,0,0,1,12.24,14.11Z"/></g></g></svg>