<svg xmlns="http://www.w3.org/2000/svg" xmlns:xlink="http://www.w3.org/1999/xlink" viewBox="0 0 75.51 25.71"><defs><style>.cls-1{stroke:#919191;stroke-miterlimit:10;fill:url(#linear-gradient);}.cls-2{fill:url(#linear-gradient-2);}.cls-3{fill:url(#linear-gradient-3);}.cls-4{isolation:isolate;font-size:8.4px;font-family:Poppins-Medium, Poppins;font-weight:500;}</style><linearGradient id="linear-gradient" x1="364.01" y1="-2601.98" x2="431.01" y2="-2601.98" gradientTransform="matrix(1, 0, 0, -1, -356, -2589.12)" gradientUnits="userSpaceOnUse"><stop offset="0" stop-color="#fff"/><stop offset="1" stop-color="#d1d3d4"/></linearGradient><linearGradient id="linear-gradient-2" x1="1241.87" y1="1827.86" x2="1257.37" y2="1841.2" gradientTransform="translate(-698.93 -1032.92) scale(0.56 0.57)" gradientUnits="userSpaceOnUse"><stop offset="0" stop-color="#5a9fd4"/><stop offset="1" stop-color="#306998"/></linearGradient><linearGradient id="linear-gradient-3" x1="1263.39" y1="1849.26" x2="1257.85" y2="1841.43" gradientTransform="translate(-698.93 -1032.92) scale(0.56 0.57)" gradientUnits="userSpaceOnUse"><stop offset="0" stop-color="#ffd43b"/><stop offset="1" stop-color="#ffe873"/></linearGradient></defs><title>python</title><g id="Layer_2" data-name="Layer 2"><g id="Layer_2-2" data-name="Layer 2"><polyline class="cls-1" points="8.01 3.37 8.01 0.5 75.01 0.5 75.01 25.21 8.01 25.21 8.01 22.74"/><path id="path1948" class="cls-2" d="M7.81,4.85a10.84,10.84,0,0,0-1.88.2c-1.58.29-1.88.89-1.88,2V8.51H7.91V8.9H2.67a2.39,2.39,0,0,0-2.37,2,6.33,6.33,0,0,0,0,3.85c.29,1.09.89,2,2.07,2H3.66V14.93A2.39,2.39,0,0,1,6,12.56H9.88a1.9,1.9,0,0,0,1.88-2V7a2.19,2.19,0,0,0-1.88-2A16,16,0,0,0,7.81,4.85ZM5.73,6a.7.7,0,1,1-.69.7A.68.68,0,0,1,5.73,6Z"/><path id="path1950" class="cls-3" d="M12.16,8.9v1.68A2.4,2.4,0,0,1,9.78,13H5.93a1.9,1.9,0,0,0-1.88,2v3.66a2.29,2.29,0,0,0,1.88,2,6.31,6.31,0,0,0,3.85,0c1-.29,1.88-.79,1.88-2V17.1H7.91v-.49h5.73c1.09,0,1.48-.79,1.88-2a6.46,6.46,0,0,0,0-3.85c-.3-1.09-.79-2-1.88-2H12.16ZM10,18.09a.7.7,0,0,1,0,1.39.68.68,0,0,1-.69-.7A.75.75,0,0,1,10,18.09Z"/><text class="cls-4" transform="translate(28.43 16.75)">Python</text></g></g></svg>