<svg xmlns="http://www.w3.org/2000/svg" xmlns:xlink="http://www.w3.org/1999/xlink" viewBox="0 0 75.69 25.48"><defs><style>.cls-1{stroke:#919191;stroke-miterlimit:10;fill:url(#linear-gradient);}.cls-2{isolation:isolate;font-size:8.32px;font-family:Poppins-Medium, Poppins;font-weight:500;}.cls-3{fill:#cf649a;}</style><linearGradient id="linear-gradient" x1="364.98" y1="-2745.08" x2="431.26" y2="-2745.08" gradientTransform="matrix(1, 0, 0, -1, -356, -2732.34)" gradientUnits="userSpaceOnUse"><stop offset="0" stop-color="#fff"/><stop offset="1" stop-color="#d1d3d4"/></linearGradient></defs><title>sass</title><g id="Layer_2" data-name="Layer 2"><g id="Layer_2-2" data-name="Layer 2"><polyline class="cls-1" points="8.98 3.34 8.98 0.5 75.19 0.5 75.19 24.98 8.98 24.98 8.98 22.44"/><text class="cls-2" transform="translate(32.63 16.6)">Sass</text><path class="cls-3" d="M15.16,13.92a3.64,3.64,0,0,0-1.58.4,5.87,5.87,0,0,1-.4-.79c0-.3-.1-.4,0-.7a4.62,4.62,0,0,1,.2-.79s0-.19-.4-.19a2.66,2.66,0,0,0-.69.09,4.33,4.33,0,0,0-.1.5,14.32,14.32,0,0,1-1.09,2.08,1.42,1.42,0,0,1-.2-.6c0-.29-.09-.39,0-.69a4.38,4.38,0,0,1,.2-.79s0-.2-.39-.2-.7.1-.7.2a4.55,4.55,0,0,0-.1.49c-.09.2-.89,2.18-1.18,2.68a1.65,1.65,0,0,1-.3.59h0a.31.31,0,0,0-.1.2h0a.31.31,0,0,1-.1.19.89.89,0,0,1,0-.59c.1-.69.4-1.68.4-1.78s.1-.2-.2-.3-.3.1-.39.1v.1s.29-1.19-.5-1.19A2.74,2.74,0,0,0,6,14c-.2.1-.69.4-1.19.69l-.59.3h0c-1-1.09-2.77-1.78-2.77-3.16,0-.5.19-1.88,3.46-3.47,2.67-1.38,4.85-1,5.24-.19.5,1.18-1.18,3.36-3.95,3.66a2.12,2.12,0,0,1-1.79-.5c-.09-.2-.19-.2-.19-.1s0,.2,0,.3a1.69,1.69,0,0,0,1,.79,5.73,5.73,0,0,0,3.16-.4c1.68-.69,3.07-2.47,2.67-4S8,5.81,5.56,6.7A10.94,10.94,0,0,0,1.41,9.08C.12,10.36-.08,11.45,0,11.94c.3,1.59,2.57,2.68,3.46,3.47a.09.09,0,0,0-.09.1A5.39,5.39,0,0,0,.81,17.58c-.49,1.09.1,1.88.5,2a2.82,2.82,0,0,0,3-1.18,3.18,3.18,0,0,0,.29-2.77h0l.4-.2c.2-.1.49-.3.69-.4a3.66,3.66,0,0,0-.2,1.19A2.82,2.82,0,0,0,6,17.88c-.1,0,0,.1.1.1.39,0,.59-.3.69-.69l.39-1s-.29,1.48.5,1.48c.3,0,.49-.3.59-.49h0v-.1h0c.1-.2.3-.6.7-1.29.39-.89.89-2,.89-2a1.8,1.8,0,0,0,.19.7,2,2,0,0,0,.4.79l-.2.2h0l-.3.29a4.2,4.2,0,0,0-.79,1c-.1.2-.1.3.1.4a.6.6,0,0,0,.4.1c.29,0,.49-.1.69-.1l.59-.3c.3-.3.6-.59.5-1.09a2.36,2.36,0,0,0-.2-.79l.1-.1a10.17,10.17,0,0,0,1-1.68,1.67,1.67,0,0,0,.2.69c.1.2.19.5.29.69a5.17,5.17,0,0,0-1,1.19c-.19.6,0,.89.3.89a1.09,1.09,0,0,0,.5-.1l.59-.29c.3-.3.69-.6.69-1.09,0-.2-.1-.4-.1-.69a2.9,2.9,0,0,1,1.68-.2c1.49.2,1.88,1.09,1.79,1.58a1.35,1.35,0,0,1-.5.69l-.1.1c0,.1.1.1.2.1a1.12,1.12,0,0,0,.79-1.09c0-.89-.89-1.88-2.47-1.88Zm-11.87,4c-.5.59-1.19.79-1.49.59s-.2-1,.4-1.58A7.44,7.44,0,0,1,3.39,16c.09,0,.19-.1.29-.2h.1a1.84,1.84,0,0,1-.49,2.08Zm3.76-2.47c-.2.39-.6,1.48-.8,1.48S6,16,6.25,15.21a2.82,2.82,0,0,1,.6-1.09c.29-.3.59-.39.69-.3S7.14,15.11,7.05,15.41Zm3.06,1.48c-.1,0-.1.1-.2,0v-.1a3.6,3.6,0,0,0,.5-.59,1.38,1.38,0,0,0,.3-.4h0c.1.6-.4.89-.6,1.09Zm2.28-.59c-.1,0,0-.2.1-.6A2.34,2.34,0,0,1,13,15c0,.1.1.2.1.3A.85.85,0,0,1,12.39,16.3Z"/></g></g></svg>