<svg xmlns="http://www.w3.org/2000/svg" xmlns:xlink="http://www.w3.org/1999/xlink" viewBox="0 0 76.01 25.73"><defs><style>.cls-1{stroke:#919191;stroke-miterlimit:10;fill:url(#linear-gradient);}.cls-2{fill:none;}.cls-3{isolation:isolate;font-size:8.41px;font-family:Poppins-Medium, Poppins;font-weight:500;}.cls-4{fill:#cf649a;}</style><linearGradient id="linear-gradient" x1="364.63" y1="-2812.03" x2="431.58" y2="-2812.03" gradientTransform="matrix(1, 0, 0, -1, -356, -2799.16)" gradientUnits="userSpaceOnUse"><stop offset="0" stop-color="#fff"/><stop offset="1" stop-color="#d1d3d4"/></linearGradient></defs><title>scss</title><g id="Layer_2" data-name="Layer 2"><g id="Layer_2-2" data-name="Layer 2"><polyline class="cls-1" points="8.63 3.37 8.63 0.5 75.5 0.5 75.5 25.23 8.63 25.23 8.63 22.66"/><rect class="cls-2" x="34.55" y="8.41" width="19.59" height="8.9"/><text class="cls-3" transform="translate(34.83 15.57)">Scss</text><path class="cls-4" d="M15.16,13.86a3.64,3.64,0,0,0-1.58.39,5.87,5.87,0,0,1-.4-.79c0-.3-.1-.4,0-.69a4.15,4.15,0,0,1,.2-.79s0-.2-.4-.2a2.41,2.41,0,0,0-.69.1,4.08,4.08,0,0,0-.1.49,13.82,13.82,0,0,1-1.09,2.08,1.43,1.43,0,0,1-.2-.59c0-.3-.09-.4,0-.7a4.62,4.62,0,0,1,.2-.79s0-.2-.39-.2-.7.1-.7.2a4.33,4.33,0,0,0-.1.5C9.82,13.06,9,15,8.73,15.54a1.65,1.65,0,0,1-.3.59h0a.31.31,0,0,0-.1.2h0a.35.35,0,0,1-.1.2.93.93,0,0,1,0-.6c.1-.69.4-1.68.4-1.78s.1-.2-.2-.29S8.13,14,8,14v.1s.29-1.18-.5-1.18A2.72,2.72,0,0,0,6,14c-.2.1-.69.4-1.19.7l-.59.29h0c-1-1.08-2.77-1.78-2.77-3.16,0-.5.19-1.88,3.46-3.46,2.67-1.39,4.85-1,5.24-.2.5,1.18-1.18,3.36-3.95,3.66a2.08,2.08,0,0,1-1.79-.5c-.09-.19-.19-.19-.19-.1s0,.2,0,.3a1.69,1.69,0,0,0,1,.79,5.79,5.79,0,0,0,3.16-.39C10,11.18,11.4,9.4,11,7.82S8,5.74,5.56,6.63A10.94,10.94,0,0,0,1.41,9C.12,10.29-.08,11.38,0,11.88c.3,1.58,2.57,2.67,3.46,3.46a.09.09,0,0,0-.09.1c-.5.2-2.18,1.09-2.58,2.08s.1,1.88.5,2a2.82,2.82,0,0,0,3-1.18,3.18,3.18,0,0,0,.29-2.77h0l.4-.2c.2-.1.49-.3.69-.4a3.71,3.71,0,0,0-.2,1.19A2.8,2.8,0,0,0,6,17.81c-.1,0,0,.1.1.1.39,0,.59-.3.69-.69l.39-1s-.29,1.48.5,1.48c.3,0,.49-.29.59-.49h0v-.1h0c.1-.2.3-.59.7-1.29.39-.89.89-2,.89-2a1.78,1.78,0,0,0,.19.69,2,2,0,0,0,.4.79l-.2.2h0l-.3.29a4.2,4.2,0,0,0-.79,1c-.1.2-.1.3.1.4a.6.6,0,0,0,.4.1c.29,0,.49-.1.69-.1l.59-.3a1.15,1.15,0,0,0,.5-1.09,2.36,2.36,0,0,0-.2-.79l.1-.1a10.17,10.17,0,0,0,1-1.68,1.67,1.67,0,0,0,.2.69c.1.2.19.5.29.7a5,5,0,0,0-1,1.18c-.19.6,0,.89.3.89a1.19,1.19,0,0,0,.5-.09l.59-.3c.3-.3.69-.59.69-1.09,0-.2-.1-.4-.1-.69a2.9,2.9,0,0,1,1.68-.2c1.49.2,1.88,1.09,1.79,1.58a1.39,1.39,0,0,1-.5.7l-.1.09c0,.1.1.1.2.1a1.1,1.1,0,0,0,.79-1.08c0-.9-.89-1.88-2.47-1.88ZM3.29,17.81c-.5.6-1.19.79-1.49.6s-.2-1,.4-1.59a7.44,7.44,0,0,1,1.19-.89c.09,0,.19-.1.29-.19h.1a1.82,1.82,0,0,1-.49,2.07Zm3.76-2.47c-.2.4-.6,1.48-.8,1.48s-.29-.89,0-1.68a2.9,2.9,0,0,1,.6-1.09c.29-.29.59-.39.69-.29S7.14,15,7.05,15.34Zm3.06,1.48c-.1,0-.1.1-.2,0v-.1a3.6,3.6,0,0,0,.5-.59,1.46,1.46,0,0,0,.3-.39h0c.1.59-.4.89-.6,1.08Zm2.28-.59c-.1,0,0-.2.1-.59a2.24,2.24,0,0,1,.49-.7c0,.1.1.2.1.3A.85.85,0,0,1,12.39,16.23Z"/></g></g></svg>