<svg xmlns="http://www.w3.org/2000/svg" xmlns:xlink="http://www.w3.org/1999/xlink" viewBox="0 0 76.01 25.74"><defs><style>.cls-1{stroke:#919191;stroke-miterlimit:10;fill:url(#linear-gradient);}.cls-2{isolation:isolate;font-size:8.41px;font-family:Poppins-Medium, Poppins;font-weight:500;}.cls-3{fill:#fdb300;}.cls-4{fill:#eb6c00;}.cls-5{fill:#fdad00;}.cls-6{fill:#fdd231;}.cls-7{fill:#feeeb7;}</style><linearGradient id="linear-gradient" x1="364.41" y1="-2958.05" x2="431.59" y2="-2958.05" gradientTransform="matrix(1, 0, 0, -1, -356, -2945.18)" gradientUnits="userSpaceOnUse"><stop offset="0" stop-color="#fff"/><stop offset="1" stop-color="#d1d3d4"/></linearGradient></defs><title>sketch</title><g id="Layer_2" data-name="Layer 2"><g id="Layer_2-2" data-name="Layer 2"><polyline class="cls-1" points="8.41 3.37 8.41 0.5 75.5 0.5 75.5 25.24 8.41 25.24 8.41 22.67"/><text class="cls-2" transform="translate(31.08 16.77)">Sketch</text><polygon class="cls-3" points="8.51 5.25 3.66 5.75 0 10.69 8.51 20.59 17.02 10.69 13.26 5.75 8.51 5.25"/><polygon class="cls-4" points="0 10.69 8.51 20.59 3.46 10.69 0 10.69"/><polygon class="cls-4" points="13.56 10.69 8.51 20.59 17.02 10.69 13.56 10.69"/><polygon class="cls-5" points="3.46 10.69 8.51 20.59 13.56 10.69 3.46 10.69"/><polygon class="cls-6" points="3.66 5.75 3.46 10.69 8.51 5.25 3.66 5.75"/><polygon class="cls-6" points="13.56 10.69 13.26 5.75 8.51 5.25 13.56 10.69"/><polygon class="cls-5" points="13.56 10.69 17.02 10.69 13.26 5.75 13.56 10.69"/><polygon class="cls-5" points="0 10.69 3.46 10.69 3.66 5.75 0 10.69"/><polygon class="cls-7" points="8.51 5.25 3.46 10.69 13.56 10.69 8.51 5.25"/></g></g></svg>