<svg xmlns="http://www.w3.org/2000/svg" xmlns:xlink="http://www.w3.org/1999/xlink" viewBox="0 0 74.82 25.79"><defs><style>.cls-1{stroke:#919191;stroke-miterlimit:10;fill:url(#linear-gradient);}.cls-2{fill:none;}.cls-3{isolation:isolate;font-size:8.43px;font-family:Poppins-Medium, Poppins;font-weight:500;}.cls-4{fill:url(#linear-gradient-2);}.cls-5{fill:url(#linear-gradient-3);}.cls-6{fill:url(#radial-gradient);}</style><linearGradient id="linear-gradient" x1="363.11" y1="-3030.4" x2="430.41" y2="-3030.4" gradientTransform="matrix(1, 0, 0, -1, -356, -3017.51)" gradientUnits="userSpaceOnUse"><stop offset="0" stop-color="#fff"/><stop offset="1" stop-color="#d1d3d4"/></linearGradient><linearGradient id="linear-gradient-2" x1="-8493.49" y1="-20319.55" x2="-8484.32" y2="-20324.96" gradientTransform="translate(1010.76 2431.51) scale(0.12)" gradientUnits="userSpaceOnUse"><stop offset="0" stop-color="#909ca9"/><stop offset="1" stop-color="#ededee"/></linearGradient><linearGradient id="linear-gradient-3" x1="-8493.29" y1="-20421.63" x2="-8485.91" y2="-20421.63" gradientTransform="translate(1010.76 2431.51) scale(0.12)" gradientUnits="userSpaceOnUse"><stop offset="0" stop-color="#939fab"/><stop offset="1" stop-color="#dcdee1"/></linearGradient><radialGradient id="radial-gradient" cx="-3028.35" cy="-1202.23" r="9.79" gradientTransform="matrix(-0.11, -0.02, 0.03, -0.23, -296.95, -315.31)" gradientUnits="userSpaceOnUse"><stop offset="0" stop-color="#ee352c"/><stop offset="1" stop-color="#a91d22"/></radialGradient></defs><title>sql-server</title><g id="Layer_2" data-name="Layer 2"><g id="Layer_2-2" data-name="Layer 2"><polyline class="cls-1" points="7.11 3.38 7.11 0.5 74.32 0.5 74.32 25.29 7.11 25.29 7.11 22.71"/><rect class="cls-2" x="21.18" y="8.43" width="45.9" height="9.02"/><text class="cls-3" transform="translate(21.89 15.55)">SQL Server</text><path class="cls-4" d="M8.67,12.3l-3,1L3,14.44l-.73.19c-.19.18-.38.36-.6.54l-.61.52a4.78,4.78,0,0,0-.6.59A2.86,2.86,0,0,0,.06,17a1.28,1.28,0,0,0,.18,1.13,4,4,0,0,0,1.65,1.24,11,11,0,0,0,1.44.48,18.55,18.55,0,0,0,3.09.44,2.46,2.46,0,0,0,.4,0s.14-.25.29-.56a14.68,14.68,0,0,0,1.07-2.82,14.49,14.49,0,0,0,.27-2c0-.22,0-1,0-1.21a7.59,7.59,0,0,0-.12-1.06s0-.1,0-.1l.41-.12-.08-.18ZM8,12.7a7.19,7.19,0,0,1,.12,1.14.67.67,0,0,1,0,.16s-.39-.22-.65-.38-.66-.43-.73-.49,0,0,.17-.08Zm-1.53.51a.82.82,0,0,1,.2.11A14.26,14.26,0,0,0,8,14.08c.08,0,.09,0-.1.16a10.13,10.13,0,0,1-1.57.84l-.2.09s0-.06,0-.13a6.66,6.66,0,0,0,.25-1.6c0-.23,0-.23,0-.23Zm-.32.12a3.74,3.74,0,0,1,0,.66,5.32,5.32,0,0,1-.21,1,1,1,0,0,1,0,.16,4.5,4.5,0,0,1-.43-.41A3.43,3.43,0,0,1,5,14.12a1.2,1.2,0,0,1-.13-.31s1.23-.49,1.24-.48Zm-1.48.58h0s0,0,0,.08a2.76,2.76,0,0,0,.37.67,3.68,3.68,0,0,0,.53.57l.11.1s0,0-.35.15-.9.33-1.44.5l-.38.12s0,0,0-.09a13.27,13.27,0,0,0,.9-1.81L4.56,14a.1.1,0,0,1,.05-.06Zm-.46.19a4,4,0,0,1-.22.47,15,15,0,0,1-.79,1.37l-.11.18s0,0,0-.06a2.21,2.21,0,0,1-.18-.53,2.16,2.16,0,0,1,0-.67c0-.14,0-.14.1-.18.29-.14,1.23-.59,1.24-.58Zm3.93.16v.1A12.32,12.32,0,0,1,8,16.07a.45.45,0,0,1,0,.16l-.14,0a5.27,5.27,0,0,1-1-.45,4.69,4.69,0,0,1-.53-.32l.21-.12a11.94,11.94,0,0,0,1.24-.73l.4-.28,0,0Zm-5.65.68s0,0,0,.1,0,.16,0,.24a1.68,1.68,0,0,0,.2.91,1.2,1.2,0,0,1,.08.18L.73,17,.45,17s0,0,0,0a2.43,2.43,0,0,1,.66-1.14,2.86,2.86,0,0,1,.75-.57l.62-.34ZM6,15.57l.12.07a6.83,6.83,0,0,0,1.75.67l.05,0-.07,0c-.31.17-1.3.58-2.32,1l-.32.12-.05,0a1.33,1.33,0,0,1,.09-.18A11.12,11.12,0,0,0,6,15.65a.44.44,0,0,0,0-.08Zm-.36.12,0,.1a14.57,14.57,0,0,1-.79,1.59,1.71,1.71,0,0,1-.16.27l-.15-.09a4.66,4.66,0,0,1-1.19-1l0-.05.21-.06a16.13,16.13,0,0,0,2-.68Zm2.25.78h0c0,.06-.12.53-.21.86s-.15.51-.27.91l-.11.31h0A9.28,9.28,0,0,1,5.44,18L5,17.85a2.12,2.12,0,0,1,.31-.15c1-.45,2.11-1,2.47-1.18l.09-.05Zm-5.19.18s-.29.42-.69,1l-.37.52c-.06.08-.15.22-.2.3l-.1.15-.1-.09a4.36,4.36,0,0,1-.43-.43,2,2,0,0,1-.38-.74c0-.1,0-.16,0-.17l1.21-.28.82-.19.24-.06Zm.29.11.07.08a4.26,4.26,0,0,0,1.07.88l.12.08-2,.73-.66.23-.05,0,0,0,.07-.1a16.83,16.83,0,0,1,1.07-1.35l.4-.49Zm1.82,1.3.22.08a8.39,8.39,0,0,0,2.12.48s.08,0,.07,0l-.6.2-2.56.75-.34.1a.15.15,0,0,1-.1,0,2,2,0,0,1,.12-.16,12.15,12.15,0,0,0,.93-1.24l.14-.21Zm-.41,0a6.37,6.37,0,0,1-.44.71l-.3.48-.15.25-.07.12h0l-.81-.29-.53-.24a2.63,2.63,0,0,1-.39-.25l.69-.19,1.91-.54.12,0Zm2.84.67h0s-.36,1-.49,1.37c0,.07,0,.09-.06.09l-.9-.13c-.57-.09-1.52-.25-1.76-.31H4l.34-.07c.73-.17,1.08-.26,1.43-.37a9.18,9.18,0,0,0,1.34-.51l.15-.06Z"/><path class="cls-5" d="M5.57,5.28c-.05,0-.86.29-1.38.5a8.85,8.85,0,0,0-1.59.8,1.19,1.19,0,0,0-.3.3.24.24,0,0,0,0,.08l.31.29.72.23L5,7.79l2,.34L7,8H7l-.26,0-.06-.1C6.44,7.35,6.14,6.76,6,6.37a6.49,6.49,0,0,1-.33-.92c0-.15,0-.16-.07-.17Zm0,.12h0l0,.14a4.91,4.91,0,0,0,.22,1c.09.25.09.24,0,.21s-1.27-.25-2-.35l-.23,0,.79-.41c.31-.14,1.17-.5,1.23-.51Zm-2.19,1,.09,0a13.39,13.39,0,0,0,2.36.45h.14L5.79,7c-.33.16-.68.36-.93.51l-.14.08H4.61l-.09,0-.23-.22-.83-.8Zm-.09.07.32.4L4,7.38,4,7.46s-.47-.08-.71-.13l-.5-.13-.13,0v0c0-.15.2-.38.53-.61l0,0ZM6,7s0,0,0,.08.32.63.38.72,0,0-.27,0l-1-.17s0,0,0,0a4.06,4.06,0,0,0,.69-.48L6,7Z"/><path class="cls-6" d="M2.31,6.85a.23.23,0,0,0,0,.2.86.86,0,0,0,.21.25s1,1,1.14,1.13a3.14,3.14,0,0,1,.82,2.16,3.39,3.39,0,0,1-.36,1.64,10.66,10.66,0,0,1-3,3.44l.23-.08a7.42,7.42,0,0,1,.8-.48A29.58,29.58,0,0,1,5.9,13.43a46.32,46.32,0,0,1,7.63-2l.2,0,0,0a7.3,7.3,0,0,0-.46-.64,5.29,5.29,0,0,0-1.61-1.34A12,12,0,0,0,8.12,8.14c-.27-.05-.88-.16-1.37-.23l-2.46-.4-.93-.18a4.59,4.59,0,0,1-.6-.16c-.16-.06-.4-.12-.45-.32Zm.59.57.08,0,.33.1.3.08.26.06s.24.75.32,1c0,.1,0,.2,0,.2l-.06-.09A4.54,4.54,0,0,0,3,7.51L2.9,7.42ZM4,7.73l.12,0c.39.09,1.08.22,1.52.29l.14,0-.06,0-.48.29a4.61,4.61,0,0,0-.64.51L4.49,9l0-.08a6.62,6.62,0,0,0-.41-1.12l0-.1Zm2,.38a1.26,1.26,0,0,1,.08.25,4,4,0,0,1,.11,1c0,.1,0,.18,0,.2v0L6,9.58l-1-.29-.35-.1a4.57,4.57,0,0,1,.4-.41A9.83,9.83,0,0,1,6,8.11Zm.15,0s1,.15,1.37.24l.81.16s0,0-.19.1a10.18,10.18,0,0,0-1.49.81l-.22.14V9.44A3.19,3.19,0,0,0,6.17,8.2Zm2.42.48a1.33,1.33,0,0,1-.05.3,5.53,5.53,0,0,1-.57,1.31l-.1.16-.13-.08a8.19,8.19,0,0,0-.89-.43l-.18-.08s.72-.5,1.11-.73.8-.46.81-.45Zm.18,0,.65.18a14.26,14.26,0,0,1,1.55.57l.16.07-.11,0a17.34,17.34,0,0,0-2.63.81l-.13.05,0-.11a4.78,4.78,0,0,0,.44-1.52s0-.08,0-.08Zm-4.13.95a3.94,3.94,0,0,1,.5.12,6.62,6.62,0,0,1,.81.27l-.14.12c-.3.24-.58.51-.93.84a1.27,1.27,0,0,1-.19.17s0,0,0,0a5,5,0,0,0,0-1.37A.84.84,0,0,0,4.61,9.58Zm6.65,0L11,10c-.14.2-.34.46-.79,1l-.6.75c-.09.11-.16.21-.17.21l-.06-.09a4.67,4.67,0,0,0-.92-1l-.17-.14,0,0s.38-.18.68-.3c.51-.2,1.21-.46,1.74-.62.27-.08.56-.17.57-.16Zm.17,0,.13.07a7.34,7.34,0,0,1,1.53,1.14l.41.43-.23,0a21.36,21.36,0,0,0-3.36.56l-.15,0a1.82,1.82,0,0,1,.19-.2,5.7,5.7,0,0,0,1.38-1.83l.1-.22Zm-5.06.52.55.26.53.28-.25.12c-.42.22-.79.42-1.17.65l-.2.12s0,0,0-.12a4.46,4.46,0,0,0,.46-1.25s0-.06,0-.06Zm-.3.06a4.05,4.05,0,0,1-.12.44,5.7,5.7,0,0,1-.4.92l-.12.21-.06.09-.12-.12a1.55,1.55,0,0,0-.43-.32c-.06,0-.11,0-.11-.06a8.85,8.85,0,0,1,.69-.62c.21-.19.67-.55.67-.54ZM7.88,11,8,11a9.46,9.46,0,0,1,.79.58l.43.39,0,0-.18.05c-1,.29-1.85.55-2.79.89l-.2.07.21-.2A9.5,9.5,0,0,0,7.8,11.07L7.88,11Zm-.47.12s-.31.44-.5.69-.62.79-.89,1.11a1.81,1.81,0,0,1-.22.25.28.28,0,0,1,0-.08,1.93,1.93,0,0,0-.19-.82c0-.11-.06-.13,0-.14s.71-.42,1.12-.64.73-.38.74-.37Zm-2.88.7.12.06A2.7,2.7,0,0,1,5,12.1l-.13.11c-.22.15-.55.4-.74.55s-.2.16-.18.13a4.62,4.62,0,0,0,.3-.52,4.78,4.78,0,0,0,.19-.48c0-.07,0-.12,0-.12Zm.77.6s0,0,.08.11a1.79,1.79,0,0,1,.26.67v0l-.31.12c-.56.22-1.07.43-1.42.59l-.38.18-.2.1.16-.12A9.36,9.36,0,0,0,5.2,12.49c0-.06.09-.11.09-.12Zm-.36.09a5.29,5.29,0,0,1-.42.48A7.48,7.48,0,0,1,3.1,14.08L3,14.17s0,0,.24-.27a5.71,5.71,0,0,0,.39-.47.67.67,0,0,1,.23-.21C4.16,13,4.93,12.45,4.94,12.46Z"/></g></g></svg>