<svg xmlns="http://www.w3.org/2000/svg" xmlns:xlink="http://www.w3.org/1999/xlink" viewBox="0 0 75.44 25.84"><defs><style>.cls-1{stroke:#919191;stroke-miterlimit:10;fill:url(#linear-gradient);}.cls-2{fill:none;}.cls-3{isolation:isolate;font-size:8.44px;font-family:Poppins-Medium, Poppins;font-weight:500;}.cls-4{fill:#007acc;}.cls-4,.cls-5{fill-rule:evenodd;}.cls-5{fill:#fff;}</style><linearGradient id="linear-gradient" x1="363.58" y1="-3114.12" x2="430.94" y2="-3114.12" gradientTransform="matrix(1, 0, 0, -1, -356, -3101.21)" gradientUnits="userSpaceOnUse"><stop offset="0" stop-color="#fff"/><stop offset="1" stop-color="#d1d3d4"/></linearGradient></defs><title>typescript</title><g id="Layer_2" data-name="Layer 2"><g id="Layer_2-2" data-name="Layer 2"><polyline class="cls-1" points="7.58 3.38 7.58 0.5 74.94 0.5 74.94 25.34 7.58 25.34 7.58 22.85"/><rect class="cls-2" x="21.39" y="8.25" width="46.2" height="10.23"/><text class="cls-3" transform="translate(21.92 15.4)">TypeScript</text><path class="cls-4" d="M0,13.2V5.62H15.17V20.78H0V13.2Z"/><path class="cls-5" d="M3.32,13.23v.62h2v5.61H6.7V13.85h2v-.61a3.69,3.69,0,0,0,0-.63H3.34v.62Zm8.87-.64a1.87,1.87,0,0,1,.94.55,2.58,2.58,0,0,1,.37.48,12.66,12.66,0,0,1-1.06.71s-.07-.05-.13-.15a.87.87,0,0,0-.72-.42c-.45,0-.75.21-.75.6a.68.68,0,0,0,.06.29c.11.21.3.33.88.59a3.72,3.72,0,0,1,1.84,1.22,2.19,2.19,0,0,1,.18,1.84,2,2,0,0,1-1.68,1.2,4.51,4.51,0,0,1-1.16,0,2.86,2.86,0,0,1-1.54-.8A2.59,2.59,0,0,1,9,18.1L9.17,18l.57-.33.43-.25.1.13a1.89,1.89,0,0,0,.57.56A1.39,1.39,0,0,0,12.31,18a.54.54,0,0,0,.21-.45.57.57,0,0,0-.12-.39c-.12-.17-.36-.3-1-.6a3.78,3.78,0,0,1-1.43-.88A2.09,2.09,0,0,1,9.51,15a2.63,2.63,0,0,1,0-1A1.83,1.83,0,0,1,11,12.55a3.77,3.77,0,0,1,1.16,0Z"/></g></g></svg>