<svg xmlns="http://www.w3.org/2000/svg" xmlns:xlink="http://www.w3.org/1999/xlink" viewBox="0 0 75.51 25.61"><defs><style>.cls-1{stroke:#919191;stroke-miterlimit:10;fill:url(#linear-gradient);}.cls-2{fill:none;}.cls-3{isolation:isolate;font-size:8.37px;font-family:Poppins-Medium, Poppins;font-weight:500;}.cls-4{fill:#2072b8;}.cls-5{fill:#fff;}</style><linearGradient id="linear-gradient" x1="364.47" y1="-3266.32" x2="431.09" y2="-3266.32" gradientTransform="matrix(1, 0, 0, -1, -356, -3253.52)" gradientUnits="userSpaceOnUse"><stop offset="0" stop-color="#fff"/><stop offset="1" stop-color="#d1d3d4"/></linearGradient></defs><title>web-api</title><g id="Layer_2" data-name="Layer 2"><g id="Layer_2-2" data-name="Layer 2"><polyline class="cls-1" points="8.47 3.35 8.47 0.5 75.01 0.5 75.01 25.11 8.47 25.11 8.47 22.55"/><rect class="cls-2" x="27.46" y="9.16" width="35.14" height="8.66"/><text class="cls-3" transform="translate(27.83 16.25)">Web API</text><path class="cls-4" d="M13.58,11.62a1.25,1.25,0,0,0-.59.1A2.56,2.56,0,0,0,11.62,10a2.35,2.35,0,0,0-2.27,0,3.46,3.46,0,1,0-6.5,2.36,3,3,0,0,0-2.85,3,2.86,2.86,0,0,0,2.85,2.85H13.58a3.25,3.25,0,0,0,0-6.5Z"/><polygon class="cls-5" points="8.96 16.64 8.96 15.56 5.41 15.56 5.41 14.77 8.96 14.77 8.96 13.59 11.42 15.17 8.96 16.64"/><polygon class="cls-5" points="11.32 12.12 11.32 12.9 7.68 12.9 7.68 14.09 5.32 12.51 7.68 10.94 7.68 12.12 11.32 12.12"/></g></g></svg>