<svg xmlns="http://www.w3.org/2000/svg" xmlns:xlink="http://www.w3.org/1999/xlink" viewBox="0 0 76.5 26"><defs><style>.cls-1{stroke:#919191;stroke-miterlimit:10;fill:url(#linear-gradient);}.cls-2{fill:#470137;}.cls-3{fill:#ff61f6;}.cls-4{isolation:isolate;font-size:8.5px;font-family:Poppins-Medium, Poppins;font-weight:500;}</style><linearGradient id="linear-gradient" x1="8.3" y1="7.17" x2="76" y2="7.17" gradientTransform="matrix(1, 0, 0, -1, 0, 20.17)" gradientUnits="userSpaceOnUse"><stop offset="0" stop-color="#fff"/><stop offset="1" stop-color="#d1d3d4"/></linearGradient></defs><title>xd</title><g id="Layer_2" data-name="Layer 2"><g id="Layer_1-2" data-name="Layer 1"><polyline class="cls-1" points="8.3 3.4 8.3 0.5 76 0.5 76 25.5 8.3 25.5 8.3 22.9"/><path class="cls-2" d="M2.9,4.9H13.6a2.9,2.9,0,0,1,2.9,2.9V18.1A2.9,2.9,0,0,1,13.6,21H2.9A2.9,2.9,0,0,1,0,18.1V7.8A2.9,2.9,0,0,1,2.9,4.9Z"/><path class="cls-3" d="M8.7,9.1,6.6,12.5l2.2,3.6v.1H7.1c-.1,0-.2,0-.2-.1-.1-.3-.3-.6-.4-.9a4.05,4.05,0,0,0-.5-.9c-.2-.3-.3-.6-.5-.9h0a4.05,4.05,0,0,1-.5.9c-.2.3-.3.6-.5.9s-.3.6-.5.9c0,.1-.1.1-.2.1H2.3v-.1l2.1-3.5L2.3,9.1V9H4.1l.1.1c.1.3.3.6.4.9s.3.6.5.9.3.6.5.9h0c.1-.3.3-.6.4-.9a4.05,4.05,0,0,1,.5-.9c.2-.3.3-.6.5-.9V9h.1l1.6.1Z"/><path class="cls-3" d="M11.9,16.4a4,4,0,0,1-1.5-.3,2.19,2.19,0,0,1-1-.9A2.54,2.54,0,0,1,9,13.6a2.82,2.82,0,0,1,.4-1.5A3.84,3.84,0,0,1,10.5,11a3.29,3.29,0,0,1,1.7-.4h.3V8.4a.1.1,0,0,1,.1-.1h1.5v7.4a.1.1,0,0,1-.1.1,2.28,2.28,0,0,1-1.1.3A1.21,1.21,0,0,1,11.9,16.4Zm.7-1.3v-3h-.4a2.35,2.35,0,0,0-.8.2,2.65,2.65,0,0,0-.6.5c-.2.2-.2.5-.2.9a1.7,1.7,0,0,0,.1.7,2.19,2.19,0,0,0,.3.5,2.19,2.19,0,0,0,.5.3,1.27,1.27,0,0,0,.6.1h.3c0-.2.1-.2.2-.2Z"/><text class="cls-4" transform="translate(24.56 16.94)">Adobe XD</text></g></g></svg>